<svg width="2035" height="1250" viewBox="0 0 2035 1250" fill="none" xmlns="http://www.w3.org/2000/svg">
<g clip-path="url(#clip0_84_3)">
<rect width="2034" height="169.676" fill="#F4F4F4"/>
<path d="M196.107 68.797C196.107 69.6878 195.793 70.4466 195.167 71.0735C194.54 71.7003 193.781 72.0138 192.89 72.0138C191.999 72.0138 191.24 71.7003 190.614 71.0735C189.987 70.4466 189.673 69.6878 189.673 68.797C189.673 67.9062 189.987 67.1473 190.614 66.5205C191.24 65.8936 191.999 65.5802 192.89 65.5802C193.781 65.5802 194.54 65.8936 195.167 66.5205C195.793 67.1473 196.107 67.9062 196.107 68.797ZM187.892 112.595C186.902 112.595 186.011 112.43 185.219 112.1L186.407 108.141C186.935 108.339 187.38 108.438 187.743 108.438C189.591 108.438 190.548 107.299 190.614 105.023V77.1606H195.167V104.33C195.167 109.84 192.742 112.595 187.892 112.595ZM202.186 93.9868C202.186 95.1746 202.681 96.1643 203.671 96.9562C204.694 97.748 205.881 98.1439 207.234 98.1439C209.148 98.1439 210.847 97.4345 212.331 96.0159C213.849 94.5972 214.608 92.9311 214.608 91.0175C213.189 89.8957 211.21 89.3349 208.669 89.3349C206.822 89.3349 205.271 89.7803 204.017 90.6711C202.797 91.5619 202.186 92.6671 202.186 93.9868ZM208.075 76.3688C211.441 76.3688 214.097 77.2761 216.043 79.0907C217.99 80.8723 218.963 83.3302 218.963 86.4645V101.41H214.608V98.0449H214.41C212.529 100.816 210.022 102.202 206.888 102.202C204.215 102.202 201.972 101.41 200.157 99.8265C198.376 98.2429 197.485 96.2633 197.485 93.8878C197.485 91.3804 198.425 89.3844 200.306 87.8997C202.219 86.415 204.76 85.6727 207.927 85.6727C210.632 85.6727 212.859 86.1676 214.608 87.1574V86.1181C214.608 84.5344 213.981 83.1982 212.727 82.1095C211.474 80.9877 210.005 80.4269 208.323 80.4269C205.782 80.4269 203.77 81.4991 202.285 83.6436L198.277 81.1197C200.487 77.9524 203.753 76.3688 208.075 76.3688ZM226.672 101.41H222.119V77.1606H226.474V80.5258H226.672C227.364 79.3381 228.42 78.3483 229.839 77.5565C231.291 76.7647 232.726 76.3688 234.144 76.3688C235.926 76.3688 237.493 76.7812 238.846 77.606C240.199 78.4308 241.188 79.5691 241.815 81.0207C243.828 77.9194 246.616 76.3688 250.179 76.3688C252.983 76.3688 255.144 77.2266 256.662 78.9422C258.18 80.6578 258.938 83.0993 258.938 86.2666V101.41H254.385V86.9594C254.385 84.6829 253.973 83.0498 253.148 82.06C252.323 81.0372 250.938 80.5258 248.991 80.5258C247.243 80.5258 245.774 81.2682 244.587 82.7528C243.399 84.2375 242.805 85.9861 242.805 87.9987V101.41H238.252V86.9594C238.252 84.6829 237.84 83.0498 237.015 82.06C236.19 81.0372 234.804 80.5258 232.858 80.5258C231.109 80.5258 229.641 81.2682 228.453 82.7528C227.266 84.2375 226.672 85.9861 226.672 87.9987V101.41Z" fill="black"/>
<rect x="113.117" y="73.5684" width="63.6286" height="35.3492" rx="17.6746" transform="rotate(-11.0157 113.117 73.5684)" fill="#E4ECFF"/>
<path d="M126.034 76.9177L130.387 99.2771L127.514 99.8363L123.161 77.477L126.034 76.9177ZM140.702 97.7875C138.454 98.2252 136.451 97.8156 134.694 96.5587C132.937 95.3018 131.829 93.4971 131.371 91.1446C130.917 88.8129 131.248 86.739 132.364 84.9228C133.476 83.0858 135.135 81.9525 137.342 81.5229C139.611 81.0812 141.556 81.4697 143.176 82.6885C144.813 83.8824 145.889 85.8013 146.403 88.4453L146.433 88.7636L134.41 91.104C134.743 92.5949 135.478 93.7051 136.614 94.4347C137.75 95.1643 138.984 95.3994 140.317 95.1401C142.149 94.7834 143.407 93.5878 144.091 91.5531L146.895 92.3037C146.459 93.7282 145.698 94.9244 144.612 95.8921C143.546 96.8558 142.243 97.4876 140.702 97.7875ZM134.167 88.6882L142.942 86.98C142.652 85.9344 142.044 85.1451 141.119 84.6121C140.211 84.0542 139.102 83.9029 137.79 84.1583C136.707 84.369 135.835 84.8845 135.174 85.7047C134.533 86.5208 134.198 87.5153 134.167 88.6882ZM156.127 94.5257C154.878 94.7688 153.762 94.5863 152.779 93.9781C151.817 93.3659 151.192 92.3748 150.904 91.0048L149.238 82.4483L146.553 82.9711L146.042 80.3479L148.728 79.8251L147.816 75.1409L150.689 74.5817L151.6 79.2659L155.348 78.5364L155.858 81.1595L152.111 81.889L153.594 89.5087C153.793 90.5288 154.127 91.1877 154.595 91.4855C155.059 91.7624 155.542 91.8522 156.041 91.7549C156.27 91.7104 156.485 91.647 156.685 91.5648C156.902 91.4578 157.096 91.3444 157.267 91.2247L158.671 93.6091C157.974 94.0256 157.126 94.3311 156.127 94.5257ZM172.248 86.7201C172.508 88.0525 172.144 89.2902 171.156 90.4332C170.169 91.5762 168.79 92.3199 167.02 92.6644C165.48 92.9643 164.05 92.8321 162.73 92.268C161.406 91.683 160.366 90.7833 159.611 89.569L161.959 87.9776C162.512 88.8206 163.193 89.4335 164.003 89.8162C164.829 90.174 165.668 90.2698 166.522 90.1037C167.438 89.9254 168.159 89.5797 168.686 89.0666C169.234 88.5494 169.455 88.0202 169.349 87.4789C169.159 86.5005 168.27 85.9281 166.681 85.7619L163.931 85.6167C160.808 85.4468 159.039 84.3001 158.626 82.1765C158.355 80.7817 158.7 79.5585 159.662 78.5069C160.641 77.4304 162.015 76.7199 163.785 76.3755C165.138 76.112 166.419 76.1977 167.627 76.6323C168.856 77.0629 169.794 77.7769 170.442 78.7744L168.088 80.3346C167.671 79.746 167.095 79.3395 166.36 79.1153C165.642 78.8662 164.876 78.8207 164.065 78.9787C163.315 79.1246 162.675 79.4437 162.144 79.936C161.634 80.4242 161.432 80.9389 161.537 81.4802C161.707 82.3546 162.651 82.8191 164.369 82.8737L166.795 83.0171C169.981 83.1749 171.798 84.4093 172.248 86.7201Z" fill="black"/>
<rect x="1836.04" y="42.4199" width="84.8381" height="84.8381" rx="42.419" fill="white"/>
<path d="M1874.21 70.5931C1874.37 69.6351 1875.2 68.9316 1876.17 68.9316H1880.75C1881.73 68.9316 1882.56 69.6351 1882.72 70.5931L1883.09 72.8572C1883.2 73.5182 1883.65 74.0696 1884.23 74.3949C1884.36 74.4656 1884.49 74.5416 1884.62 74.6193C1885.2 74.9658 1885.89 75.0736 1886.52 74.8385L1888.67 74.0325C1889.11 73.8668 1889.6 73.8628 1890.04 74.0214C1890.49 74.18 1890.86 74.4909 1891.09 74.8986L1893.38 78.8701C1893.62 79.2778 1893.7 79.7558 1893.62 80.2189C1893.53 80.6821 1893.29 81.1003 1892.93 81.3993L1891.15 82.861C1890.63 83.287 1890.38 83.9444 1890.39 84.6143C1890.39 84.7645 1890.39 84.9148 1890.39 85.065C1890.38 85.7331 1890.63 86.3906 1891.15 86.8166L1892.93 88.2783C1893.68 88.8969 1893.87 89.9662 1893.39 90.8057L1891.09 94.7772C1890.86 95.1849 1890.48 95.4958 1890.04 95.6547C1889.6 95.8136 1889.11 95.8102 1888.67 95.645L1886.52 94.8391C1885.89 94.604 1885.2 94.7118 1884.62 95.0582C1884.49 95.1362 1884.36 95.2116 1884.23 95.2845C1883.65 95.6079 1883.2 96.1594 1883.09 96.8204L1882.72 99.0845C1882.56 100.044 1881.73 100.746 1880.75 100.746H1876.17C1875.2 100.746 1874.37 100.042 1874.21 99.0845L1873.83 96.8204C1873.72 96.1594 1873.28 95.6079 1872.69 95.2827C1872.56 95.2104 1872.43 95.1356 1872.3 95.0582C1871.73 94.7118 1871.03 94.604 1870.4 94.8391L1868.25 95.645C1867.81 95.8103 1867.33 95.814 1866.88 95.6555C1866.44 95.4969 1866.07 95.1863 1865.83 94.779L1863.54 90.8075C1863.3 90.3997 1863.22 89.9218 1863.31 89.4586C1863.39 88.9955 1863.64 88.5772 1864 88.2783L1865.77 86.8166C1866.29 86.3924 1866.55 85.7331 1866.53 85.065C1866.53 84.9148 1866.53 84.7645 1866.53 84.6143C1866.55 83.9427 1866.29 83.287 1865.77 82.861L1864 81.3993C1863.64 81.1004 1863.39 80.6825 1863.31 80.2197C1863.22 79.757 1863.3 79.2794 1863.54 78.8718L1865.83 74.9004C1866.07 74.4923 1866.44 74.1811 1866.88 74.0222C1867.33 73.8632 1867.81 73.8669 1868.25 74.0325L1870.4 74.8385C1871.03 75.0736 1871.73 74.9658 1872.3 74.6193C1872.43 74.5416 1872.56 74.4673 1872.69 74.3931C1873.28 74.0696 1873.72 73.5182 1873.83 72.8572L1874.21 70.5931Z" stroke="black" stroke-width="2.65119" stroke-linecap="round" stroke-linejoin="round"/>
<path d="M1883.77 84.8395C1883.77 86.2458 1883.21 87.5945 1882.22 88.5888C1881.22 89.5832 1879.87 90.1419 1878.47 90.1419C1877.06 90.1419 1875.71 89.5832 1874.72 88.5888C1873.72 87.5945 1873.16 86.2458 1873.16 84.8395C1873.16 83.4332 1873.72 82.0845 1874.72 81.0901C1875.71 80.0958 1877.06 79.5371 1878.47 79.5371C1879.87 79.5371 1881.22 80.0958 1882.22 81.0901C1883.21 82.0845 1883.77 83.4332 1883.77 84.8395Z" stroke="black" stroke-width="2.65119" stroke-linecap="round" stroke-linejoin="round"/>
<rect width="2034" height="1079.92" transform="translate(0 169.676)" fill="#F4F4F4"/>
<rect x="31.6445" y="226.234" width="1284.94" height="910.242" rx="42.419" fill="white"/>
<rect x="101.461" y="310.189" width="565.587" height="364.097" rx="28.2794" fill="#F6F3F3"/>
<rect x="343.602" y="451.586" width="81.3032" height="81.3032" rx="40.6516" fill="#62A1F1"/>
<path d="M384.188 505.074C383.002 505.074 381.877 504.934 380.814 504.654C379.75 504.363 378.782 503.932 377.909 503.361C377.047 502.791 376.33 502.085 375.759 501.246C375.2 500.395 374.847 499.41 374.702 498.291H377.959C378.161 499.208 378.558 499.981 379.151 500.608C379.756 501.235 380.5 501.705 381.384 502.018C382.28 502.332 383.259 502.488 384.323 502.488C385.353 502.488 386.299 502.326 387.16 502.001C388.034 501.677 388.733 501.207 389.259 500.591C389.785 499.964 390.049 499.214 390.049 498.341C390.049 497.378 389.735 496.606 389.108 496.024C388.481 495.431 387.513 494.955 386.203 494.597L381.2 493.304C380.069 493.024 379.067 492.632 378.194 492.128C377.332 491.613 376.655 490.942 376.162 490.113C375.67 489.274 375.424 488.233 375.424 486.99C375.424 485.613 375.804 484.416 376.565 483.397C377.327 482.367 378.356 481.572 379.655 481.013C380.965 480.442 382.442 480.156 384.088 480.156C385.991 480.156 387.591 480.487 388.89 481.147C390.2 481.808 391.19 482.675 391.862 483.75C392.534 484.824 392.869 485.972 392.869 487.192H389.679C389.578 486.084 389.254 485.21 388.705 484.572C388.157 483.923 387.474 483.459 386.657 483.179C385.84 482.888 384.95 482.742 383.987 482.742C382.252 482.742 380.937 483.14 380.041 483.934C379.157 484.718 378.715 485.653 378.715 486.738C378.715 487.735 379.034 488.518 379.672 489.089C380.31 489.66 381.25 490.102 382.493 490.416L387.362 491.675C388.806 492.011 389.953 492.498 390.804 493.136C391.666 493.774 392.282 494.518 392.651 495.369C393.032 496.209 393.222 497.121 393.222 498.106C393.222 499.449 392.847 500.647 392.097 501.699C391.347 502.751 390.295 503.58 388.94 504.184C387.597 504.777 386.013 505.074 384.188 505.074Z" fill="black"/>
<rect x="131.508" y="634.518" width="118.42" height="10.6048" rx="5.30238" fill="#989898"/>
<rect x="681.188" y="310.189" width="565.587" height="364.097" rx="28.2794" fill="#F6F3F3"/>
<rect x="923.328" y="451.586" width="81.3032" height="81.3032" rx="40.6516" fill="#ED6653"/>
<path d="M952.188 504.738V480.459H956.486L963.807 500.507L971.228 480.459H975.51V504.738H972.303V485.11L965.268 504.738H962.363L955.378 485.294V504.738H952.188Z" fill="black"/>
<rect x="711.234" y="634.518" width="118.42" height="10.6048" rx="5.30238" fill="#989898"/>
<rect x="101.461" y="688.426" width="565.587" height="364.097" rx="28.2794" fill="#F6F3F3"/>
<rect x="343.602" y="829.822" width="81.3032" height="81.3032" rx="40.6516" fill="#4DB96E"/>
<path d="M382.868 882.975V861.549H375.026V858.695H393.396V861.549H385.991V882.975H382.868Z" fill="black"/>
<rect x="131.508" y="1012.75" width="118.42" height="10.6048" rx="5.30238" fill="#989898"/>
<rect x="681.188" y="688.426" width="565.587" height="364.097" rx="28.2794" fill="#F6F3F3"/>
<rect x="923.328" y="829.822" width="81.3032" height="81.3032" rx="40.6516" fill="#F9D006"/>
<path d="M956.188 882.975V858.695H964.398C966.133 858.695 967.678 858.986 969.033 859.568C970.387 860.15 971.45 861.012 972.223 862.154C973.006 863.296 973.398 864.701 973.398 866.368C973.398 867.98 973.034 869.357 972.307 870.499C971.59 871.641 970.588 872.508 969.301 873.102C968.014 873.695 966.52 873.991 964.818 873.991H959.378V882.975H956.188ZM959.361 871.372H964.751C966.419 871.372 967.773 870.908 968.814 869.978C969.855 869.049 970.376 867.784 970.376 866.184C970.376 864.572 969.839 863.352 968.764 862.523C967.689 861.695 966.301 861.281 964.6 861.281H959.361V871.372Z" fill="black"/>
<rect x="711.234" y="1012.75" width="118.42" height="10.6048" rx="5.30238" fill="#989898"/>
<rect x="1394.36" y="226.234" width="608" height="910.242" rx="42.419" fill="white"/>
<rect x="1424.36" y="268.654" width="548" height="470.144" rx="28.2794" fill="#F4F4F4"/>
<g clip-path="url(#clip1_84_3)">
<rect x="1466.77" y="311.074" width="190.886" height="19.4421" rx="7.06984" fill="#ACACAC"/>
<rect x="1466.77" y="351.727" width="408.283" height="19.4421" rx="7.06984" fill="#B0B0B0"/>
<rect x="1466.77" y="392.377" width="676.937" height="19.4421" rx="7.06984" fill="#D4D4D4"/>
<rect x="1466.77" y="433.029" width="676.937" height="19.4421" rx="7.06984" fill="#DEDDDD"/>
<rect x="1466.77" y="473.68" width="408.283" height="19.4421" rx="7.06984" fill="#E8E7E7"/>
<path d="M1689.07 535.542C1689.07 535.894 1688.93 536.231 1688.68 536.48C1688.44 536.728 1688.1 536.868 1687.75 536.868C1687.4 536.868 1687.06 536.728 1686.81 536.48C1686.56 536.231 1686.42 535.894 1686.42 535.542C1686.42 535.191 1686.56 534.854 1686.81 534.605C1687.06 534.356 1687.4 534.217 1687.75 534.217C1688.1 534.217 1688.44 534.356 1688.68 534.605C1688.93 534.854 1689.07 535.191 1689.07 535.542ZM1699.68 535.542C1699.68 535.894 1699.54 536.231 1699.29 536.48C1699.04 536.728 1698.7 536.868 1698.35 536.868C1698 536.868 1697.66 536.728 1697.41 536.48C1697.17 536.231 1697.03 535.894 1697.03 535.542C1697.03 535.191 1697.17 534.854 1697.41 534.605C1697.66 534.356 1698 534.217 1698.35 534.217C1698.7 534.217 1699.04 534.356 1699.29 534.605C1699.54 534.854 1699.68 535.191 1699.68 535.542ZM1710.28 535.542C1710.28 535.894 1710.14 536.231 1709.89 536.48C1709.65 536.728 1709.31 536.868 1708.96 536.868C1708.61 536.868 1708.27 536.728 1708.02 536.48C1707.77 536.231 1707.63 535.894 1707.63 535.542C1707.63 535.191 1707.77 534.854 1708.02 534.605C1708.27 534.356 1708.61 534.217 1708.96 534.217C1709.31 534.217 1709.65 534.356 1709.89 534.605C1710.14 534.854 1710.28 535.191 1710.28 535.542Z" stroke="black" stroke-width="2.65119" stroke-linecap="round" stroke-linejoin="round"/>
</g>
<g clip-path="url(#clip2_84_3)">
<rect x="1466.77" y="599.17" width="408.283" height="19.4421" rx="7.06984" fill="#B0B0B0"/>
<rect x="1466.77" y="639.822" width="220" height="56.5587" rx="21.2095" fill="#8B8B8B"/>
<rect x="1700.91" y="639.822" width="220" height="56.5587" rx="21.2095" fill="#8B8B8B"/>
</g>
<g clip-path="url(#clip3_84_3)">
<rect x="1424.36" y="791.822" width="190.886" height="19.4421" rx="7.06984" fill="#BBBBBB"/>
<g clip-path="url(#clip4_84_3)">
<g clip-path="url(#clip5_84_3)">
<rect x="1424.36" y="839.543" width="42.419" height="42.419" rx="21.2095" fill="#62A1F1"/>
<path d="M1445.58 867.429C1444.96 867.429 1444.37 867.355 1443.81 867.208C1443.25 867.055 1442.74 866.828 1442.28 866.527C1441.83 866.227 1441.45 865.856 1441.15 865.414C1440.85 864.966 1440.67 864.448 1440.59 863.858H1442.31C1442.41 864.342 1442.62 864.748 1442.93 865.078C1443.25 865.408 1443.64 865.655 1444.11 865.82C1444.58 865.985 1445.1 866.068 1445.66 866.068C1446.2 866.068 1446.7 865.982 1447.15 865.811C1447.61 865.641 1447.98 865.393 1448.25 865.069C1448.53 864.739 1448.67 864.344 1448.67 863.885C1448.67 863.378 1448.5 862.972 1448.17 862.665C1447.84 862.353 1447.33 862.103 1446.65 861.914L1444.01 861.234C1443.42 861.086 1442.89 860.88 1442.43 860.615C1441.98 860.344 1441.62 859.991 1441.36 859.555C1441.1 859.113 1440.97 858.565 1440.97 857.911C1440.97 857.186 1441.17 856.556 1441.57 856.02C1441.97 855.478 1442.52 855.059 1443.2 854.765C1443.89 854.464 1444.67 854.314 1445.53 854.314C1446.53 854.314 1447.38 854.488 1448.06 854.836C1448.75 855.183 1449.27 855.64 1449.62 856.205C1449.98 856.771 1450.15 857.375 1450.15 858.017H1448.47C1448.42 857.434 1448.25 856.974 1447.96 856.638C1447.67 856.297 1447.31 856.052 1446.88 855.905C1446.45 855.752 1445.99 855.675 1445.48 855.675C1444.57 855.675 1443.87 855.884 1443.4 856.303C1442.94 856.715 1442.7 857.207 1442.7 857.778C1442.7 858.303 1442.87 858.715 1443.21 859.016C1443.54 859.316 1444.04 859.549 1444.69 859.714L1447.25 860.377C1448.01 860.553 1448.62 860.81 1449.07 861.145C1449.52 861.481 1449.84 861.873 1450.04 862.321C1450.24 862.763 1450.34 863.243 1450.34 863.761C1450.34 864.468 1450.14 865.099 1449.75 865.652C1449.35 866.206 1448.8 866.642 1448.09 866.96C1447.38 867.273 1446.54 867.429 1445.58 867.429Z" fill="black"/>
<rect x="1495.05" y="851.031" width="190.886" height="19.4421" rx="7.06984" fill="#BAB9B9"/>
</g>
<g clip-path="url(#clip6_84_3)">
<rect x="1424.36" y="910.242" width="42.419" height="42.419" rx="21.2095" fill="#ED6653"/>
<path d="M1439.25 937.951V925.172H1441.52L1445.37 935.724L1449.28 925.172H1451.53V937.951H1449.84V927.62L1446.14 937.951H1444.61L1440.93 927.718V937.951H1439.25Z" fill="black"/>
<rect x="1495.05" y="921.73" width="190.886" height="19.4421" rx="7.06984" fill="#BAB9B9"/>
</g>
<g clip-path="url(#clip7_84_3)">
<rect x="1424.36" y="980.939" width="42.419" height="42.419" rx="21.2095" fill="#4DB96E"/>
<path d="M1444.6 1008.65V997.372H1440.47V995.87H1450.14V997.372H1446.24V1008.65H1444.6Z" fill="black"/>
<rect x="1495.05" y="992.428" width="190.886" height="19.4421" rx="7.06984" fill="#BAB9B9"/>
</g>
<g clip-path="url(#clip8_84_3)">
<rect x="1424.36" y="1051.64" width="42.419" height="42.419" rx="21.2095" fill="#F9D006"/>
<path d="M1441.25 1079.35V1066.57H1445.58C1446.49 1066.57 1447.3 1066.72 1448.01 1067.03C1448.73 1067.33 1449.29 1067.79 1449.69 1068.39C1450.11 1068.99 1450.31 1069.73 1450.31 1070.61C1450.31 1071.46 1450.12 1072.18 1449.74 1072.78C1449.36 1073.38 1448.83 1073.84 1448.16 1074.15C1447.48 1074.46 1446.69 1074.62 1445.8 1074.62H1442.93V1079.35H1441.25ZM1442.92 1073.24H1445.76C1446.64 1073.24 1447.35 1073 1447.9 1072.51C1448.45 1072.02 1448.72 1071.35 1448.72 1070.51C1448.72 1069.66 1448.44 1069.02 1447.87 1068.58C1447.31 1068.15 1446.58 1067.93 1445.68 1067.93H1442.92V1073.24Z" fill="black"/>
<rect x="1495.05" y="1063.13" width="190.886" height="19.4421" rx="7.06984" fill="#BAB9B9"/>
</g>
</g>
</g>
</g>
<defs>
<clipPath id="clip0_84_3">
<rect width="2034.22" height="1249.59" rx="79.5357" fill="white"/>
</clipPath>
<clipPath id="clip1_84_3">
<rect width="463.162" height="245.677" fill="white" transform="translate(1466.77 311.074)"/>
</clipPath>
<clipPath id="clip2_84_3">
<rect width="463.162" height="97.2103" fill="white" transform="translate(1466.77 599.17)"/>
</clipPath>
<clipPath id="clip3_84_3">
<rect width="548" height="302.236" fill="white" transform="translate(1424.36 791.822)"/>
</clipPath>
<clipPath id="clip4_84_3">
<rect width="548" height="254.514" fill="white" transform="translate(1424.36 839.543)"/>
</clipPath>
<clipPath id="clip5_84_3">
<rect x="1424.36" y="839.543" width="548" height="42.419" rx="17.6746" fill="white"/>
</clipPath>
<clipPath id="clip6_84_3">
<rect x="1424.36" y="910.242" width="548" height="42.419" rx="17.6746" fill="white"/>
</clipPath>
<clipPath id="clip7_84_3">
<rect x="1424.36" y="980.939" width="548" height="42.419" rx="17.6746" fill="white"/>
</clipPath>
<clipPath id="clip8_84_3">
<rect x="1424.36" y="1051.64" width="548" height="42.419" rx="17.6746" fill="white"/>
</clipPath>
</defs>
</svg>
