<svg width="2035" height="1250" viewBox="0 0 2035 1250" fill="none" xmlns="http://www.w3.org/2000/svg">
<g clip-path="url(#clip0_64_544)">
<rect width="2034" height="170.641" fill="#F4F4F4"/>
<path d="M197.223 68.9611C197.223 69.857 196.908 70.6201 196.277 71.2506C195.647 71.881 194.884 72.1962 193.988 72.1962C193.092 72.1962 192.329 71.881 191.699 71.2506C191.068 70.6201 190.753 69.857 190.753 68.9611C190.753 68.0653 191.068 67.3021 191.699 66.6717C192.329 66.0413 193.092 65.7261 193.988 65.7261C194.884 65.7261 195.647 66.0413 196.277 66.6717C196.908 67.3021 197.223 68.0653 197.223 68.9611ZM188.961 113.008C187.966 113.008 187.07 112.842 186.274 112.51L187.468 108.529C187.999 108.728 188.447 108.827 188.812 108.827C190.67 108.827 191.632 107.682 191.699 105.393V77.3723H196.277V104.696C196.277 110.237 193.839 113.008 188.961 113.008ZM203.337 94.2942C203.337 95.4887 203.835 96.4841 204.83 97.2804C205.859 98.0768 207.053 98.4749 208.414 98.4749C210.338 98.4749 212.047 97.7616 213.54 96.3348C215.066 94.9081 215.829 93.2325 215.829 91.308C214.403 90.1799 212.412 89.6158 209.857 89.6158C207.999 89.6158 206.439 90.0637 205.179 90.9596C203.951 91.8555 203.337 92.967 203.337 94.2942ZM209.26 76.576C212.644 76.576 215.315 77.4884 217.273 79.3134C219.23 81.1051 220.209 83.577 220.209 86.7291V101.76H215.829V98.3754H215.63C213.739 101.163 211.217 102.556 208.065 102.556C205.378 102.556 203.121 101.76 201.296 100.167C199.505 98.5745 198.609 96.5837 198.609 94.1947C198.609 91.673 199.554 89.6656 201.446 88.1725C203.37 86.6794 205.925 85.9328 209.11 85.9328C211.831 85.9328 214.071 86.4305 215.829 87.4259V86.3807C215.829 84.7881 215.199 83.4443 213.938 82.3493C212.677 81.2212 211.201 80.6572 209.509 80.6572C206.954 80.6572 204.93 81.7355 203.437 83.8922L199.405 81.3539C201.628 78.1686 204.913 76.576 209.26 76.576ZM227.962 101.76H223.383V77.3723H227.763V80.7567H227.962C228.658 79.5622 229.72 78.5668 231.147 77.7705C232.607 76.9742 234.05 76.576 235.477 76.576C237.269 76.576 238.845 76.9907 240.205 77.8203C241.566 78.6498 242.561 79.7945 243.191 81.2544C245.215 78.1355 248.019 76.576 251.603 76.576C254.423 76.576 256.596 77.4387 258.122 79.164C259.649 80.8894 260.412 83.3448 260.412 86.5301V101.76H255.833V87.2268C255.833 84.9374 255.418 83.295 254.589 82.2996C253.759 81.271 252.366 80.7567 250.408 80.7567C248.649 80.7567 247.173 81.5033 245.978 82.9964C244.784 84.4895 244.187 86.248 244.187 88.272V101.76H239.608V87.2268C239.608 84.9374 239.193 83.295 238.364 82.2996C237.534 81.271 236.141 80.7567 234.183 80.7567C232.424 80.7567 230.948 81.5033 229.753 82.9964C228.559 84.4895 227.962 86.248 227.962 88.272V101.76Z" fill="black"/>
<rect x="113.762" y="73.9883" width="63.9904" height="35.5502" rx="17.7751" transform="rotate(-11.0157 113.762 73.9883)" fill="#E4ECFF"/>
<path d="M126.92 78.1984L131.297 100.685L128.408 101.247L124.03 78.7608L126.92 78.1984ZM141.671 99.1869C139.41 99.6271 137.396 99.2151 135.629 97.9511C133.861 96.687 132.748 94.8721 132.287 92.5062C131.831 90.1612 132.163 88.0755 133.285 86.249C134.404 84.4016 136.072 83.2618 138.292 82.8298C140.574 82.3856 142.529 82.7763 144.159 84.002C145.805 85.2026 146.887 87.1325 147.405 89.7915L147.434 90.1117L135.343 92.4654C135.678 93.9647 136.417 95.0812 137.56 95.815C138.702 96.5487 139.943 96.7852 141.283 96.5244C143.126 96.1657 144.391 94.9632 145.079 92.917L147.899 93.6719C147.461 95.1045 146.695 96.3074 145.603 97.2807C144.531 98.2499 143.221 98.8853 141.671 99.1869ZM135.098 90.0358L143.923 88.3179C143.632 87.2664 143.021 86.4726 142.091 85.9365C141.177 85.3755 140.061 85.2233 138.742 85.4801C137.654 85.692 136.777 86.2104 136.111 87.0353C135.467 87.8561 135.129 88.8562 135.098 90.0358ZM157.183 95.9065C155.927 96.151 154.805 95.9675 153.817 95.3558C152.849 94.7401 152.221 93.7433 151.931 92.3656L150.256 83.7604L147.555 84.2862L147.041 81.6481L149.742 81.1223L148.825 76.4115L151.714 75.849L152.631 80.5599L156.4 79.8263L156.914 82.4643L153.145 83.198L154.637 90.861C154.836 91.8869 155.172 92.5495 155.643 92.849C156.11 93.1275 156.595 93.2178 157.097 93.12C157.328 93.0752 157.543 93.0114 157.745 92.9288C157.963 92.8212 158.158 92.7071 158.33 92.5867L159.742 94.9847C159.041 95.4036 158.188 95.7108 157.183 95.9065ZM173.397 88.0566C173.657 89.3965 173.291 90.6413 172.298 91.7907C171.305 92.9402 169.919 93.6882 168.139 94.0346C166.59 94.3362 165.151 94.2033 163.824 93.6359C162.492 93.0476 161.447 92.1429 160.688 90.9216L163.049 89.3211C163.605 90.169 164.29 90.7854 165.104 91.1702C165.935 91.5301 166.779 91.6264 167.638 91.4593C168.559 91.28 169.284 90.9323 169.814 90.4163C170.365 89.8963 170.587 89.364 170.481 88.8197C170.29 87.8356 169.395 87.26 167.798 87.0928L165.032 86.9469C161.891 86.776 160.113 85.6227 159.697 83.4871C159.424 82.0843 159.771 80.8542 160.739 79.7966C161.723 78.714 163.105 77.9995 164.885 77.6531C166.246 77.3881 167.534 77.4742 168.749 77.9113C169.985 78.3444 170.929 79.0625 171.58 80.0656L169.213 81.6347C168.793 81.0427 168.214 80.634 167.475 80.4085C166.752 80.1579 165.983 80.1122 165.166 80.2711C164.413 80.4178 163.769 80.7387 163.235 81.2338C162.722 81.7248 162.519 82.2425 162.625 82.7868C162.796 83.6662 163.745 84.1333 165.472 84.1882L167.913 84.3325C171.116 84.4912 172.944 85.7325 173.397 88.0566Z" fill="black"/>
<rect x="1834.92" y="42.6602" width="85.3205" height="85.3205" rx="42.6603" fill="white"/>
<path d="M1873.3 70.9931C1873.46 70.0297 1874.3 69.3223 1875.28 69.3223H1879.89C1880.86 69.3223 1881.7 70.0297 1881.86 70.9931L1882.24 73.2701C1882.35 73.9349 1882.79 74.4895 1883.38 74.8166C1883.51 74.8877 1883.64 74.9641 1883.77 75.0423C1884.35 75.3907 1885.05 75.4991 1885.69 75.2627L1887.85 74.4522C1888.29 74.2854 1888.78 74.2815 1889.23 74.441C1889.67 74.6005 1890.05 74.9131 1890.28 75.3231L1892.59 79.3172C1892.82 79.7273 1892.91 80.208 1892.82 80.6737C1892.74 81.1395 1892.49 81.5602 1892.13 81.8608L1890.34 83.3308C1889.82 83.7592 1889.56 84.4204 1889.58 85.0941C1889.58 85.2452 1889.58 85.3963 1889.58 85.5474C1889.56 86.2193 1889.82 86.8805 1890.34 87.3089L1892.13 88.7789C1892.88 89.401 1893.08 90.4764 1892.59 91.3207L1890.28 95.3148C1890.05 95.7248 1889.67 96.0375 1889.23 96.1973C1888.78 96.3571 1888.29 96.3536 1887.85 96.1876L1885.69 95.377C1885.05 95.1406 1884.35 95.249 1883.77 95.5974C1883.64 95.6758 1883.51 95.7517 1883.38 95.8249C1882.79 96.1502 1882.35 96.7048 1882.24 97.3696L1881.86 99.6466C1881.7 100.612 1880.86 101.317 1879.89 101.317H1875.27C1874.3 101.317 1873.46 100.61 1873.3 99.6466L1872.92 97.3696C1872.81 96.7048 1872.37 96.1502 1871.78 95.8232C1871.65 95.7505 1871.52 95.6752 1871.39 95.5974C1870.81 95.249 1870.11 95.1406 1869.47 95.377L1867.31 96.1876C1866.87 96.3538 1866.38 96.3575 1865.93 96.198C1865.49 96.0386 1865.11 95.7262 1864.88 95.3166L1862.57 91.3225C1862.34 90.9124 1862.25 90.4317 1862.34 89.966C1862.42 89.5002 1862.67 89.0796 1863.03 88.7789L1864.82 87.3089C1865.34 86.8823 1865.6 86.2193 1865.58 85.5474C1865.58 85.3963 1865.58 85.2452 1865.58 85.0941C1865.6 84.4187 1865.34 83.7592 1864.82 83.3308L1863.03 81.8608C1862.67 81.5602 1862.42 81.1399 1862.34 80.6746C1862.25 80.2092 1862.34 79.7289 1862.57 79.319L1864.88 75.3249C1865.11 74.9146 1865.49 74.6016 1865.94 74.4417C1866.38 74.2819 1866.87 74.2856 1867.31 74.4522L1869.47 75.2627C1870.11 75.4991 1870.81 75.3907 1871.39 75.0423C1871.51 74.9641 1871.65 74.8894 1871.78 74.8148C1872.37 74.4895 1872.81 73.9349 1872.92 73.2701L1873.3 70.9931Z" stroke="black" stroke-width="2.66627" stroke-linecap="round" stroke-linejoin="round"/>
<path d="M1882.91 85.3208C1882.91 86.7351 1882.35 88.0914 1881.35 89.0915C1880.35 90.0915 1878.99 90.6533 1877.58 90.6533C1876.16 90.6533 1874.81 90.0915 1873.81 89.0915C1872.81 88.0914 1872.25 86.7351 1872.25 85.3208C1872.25 83.9065 1872.81 82.5502 1873.81 81.5501C1874.81 80.5501 1876.16 79.9883 1877.58 79.9883C1878.99 79.9883 1880.35 80.5501 1881.35 81.5501C1882.35 82.5502 1882.91 83.9065 1882.91 85.3208Z" stroke="black" stroke-width="2.66627" stroke-linecap="round" stroke-linejoin="round"/>
<rect width="2034.22" height="1078.64" transform="translate(0 170.641)" fill="#F4F4F4"/>
<rect x="51.1094" y="227.521" width="1932" height="908" rx="49.7703" fill="white"/>
<g clip-path="url(#clip1_64_544)">
<path d="M140.17 351.842V322.284C140.279 322.284 140.6 322.29 141.131 322.304C141.676 322.304 142.33 322.304 143.094 322.304C143.857 322.29 144.633 322.29 145.424 322.304C146.228 322.304 146.943 322.311 147.57 322.324C151.182 322.379 154.118 322.979 156.38 324.123C158.643 325.268 160.298 326.917 161.348 329.07C162.411 331.21 162.942 333.819 162.942 336.899C162.942 340.102 162.377 342.82 161.246 345.055C160.114 347.277 158.384 348.966 156.053 350.125C153.737 351.269 150.8 351.842 147.243 351.842H140.17ZM144.627 348.162H147.284C149.519 348.162 151.461 347.801 153.11 347.079C154.772 346.343 156.06 345.157 156.973 343.522C157.886 341.873 158.343 339.672 158.343 336.92C158.343 334.221 157.907 332.075 157.035 330.481C156.162 328.873 154.909 327.721 153.273 327.026C151.652 326.317 149.696 325.963 147.407 325.963H144.627V348.162ZM176.687 352.251C174.711 352.251 172.987 351.828 171.515 350.983C170.043 350.125 168.899 348.885 168.081 347.263C167.263 345.641 166.854 343.679 166.854 341.376C166.854 339.155 167.243 337.213 168.02 335.55C168.796 333.887 169.914 332.6 171.372 331.687C172.844 330.76 174.622 330.297 176.707 330.297C178.697 330.297 180.421 330.733 181.879 331.605C183.337 332.463 184.468 333.724 185.272 335.386C186.076 337.035 186.478 339.032 186.478 341.376C186.478 343.515 186.103 345.403 185.354 347.038C184.604 348.673 183.501 349.954 182.042 350.881C180.598 351.794 178.813 352.251 176.687 352.251ZM176.707 348.878C177.92 348.878 178.928 348.564 179.732 347.937C180.537 347.297 181.143 346.404 181.552 345.26C181.961 344.101 182.165 342.766 182.165 341.253C182.165 339.85 181.981 338.575 181.613 337.431C181.259 336.272 180.68 335.352 179.876 334.671C179.085 333.99 178.029 333.649 176.707 333.649C175.494 333.649 174.472 333.962 173.641 334.589C172.823 335.203 172.21 336.081 171.801 337.226C171.392 338.357 171.188 339.7 171.188 341.253C171.188 342.63 171.372 343.897 171.74 345.055C172.108 346.214 172.694 347.14 173.498 347.835C174.316 348.53 175.385 348.878 176.707 348.878ZM198.493 351.985C196.925 351.985 195.713 351.774 194.854 351.351C193.995 350.929 193.396 350.322 193.055 349.532C192.714 348.728 192.544 347.76 192.544 346.629V333.853H189.11V330.705H192.687L193.75 324.491H196.939V330.685H201.681V333.853H196.939L196.959 346.466C196.959 347.161 197.028 347.672 197.164 347.999C197.314 348.312 197.559 348.517 197.9 348.612C198.254 348.694 198.731 348.735 199.331 348.735H201.784V351.576C201.525 351.685 201.123 351.78 200.578 351.862C200.046 351.944 199.351 351.985 198.493 351.985ZM223.831 351.842L213.385 322.284H217.658L226.407 346.834L235.135 322.284H239.428L228.982 351.842H223.831ZM249.988 352.251C248.012 352.251 246.288 351.828 244.817 350.983C243.345 350.125 242.2 348.885 241.382 347.263C240.565 345.641 240.156 343.679 240.156 341.376C240.156 339.155 240.544 337.213 241.321 335.55C242.098 333.887 243.215 332.6 244.673 331.687C246.145 330.76 247.924 330.297 250.009 330.297C251.998 330.297 253.722 330.733 255.18 331.605C256.638 332.463 257.77 333.724 258.574 335.386C259.378 337.035 259.78 339.032 259.78 341.376C259.78 343.515 259.405 345.403 258.655 347.038C257.906 348.673 256.802 349.954 255.344 350.881C253.899 351.794 252.114 352.251 249.988 352.251ZM250.009 348.878C251.222 348.878 252.23 348.564 253.034 347.937C253.838 347.297 254.444 346.404 254.853 345.26C255.262 344.101 255.466 342.766 255.466 341.253C255.466 339.85 255.283 338.575 254.915 337.431C254.56 336.272 253.981 335.352 253.177 334.671C252.387 333.99 251.331 333.649 250.009 333.649C248.796 333.649 247.774 333.962 246.942 334.589C246.125 335.203 245.512 336.081 245.103 337.226C244.694 338.357 244.489 339.7 244.489 341.253C244.489 342.63 244.673 343.897 245.041 345.055C245.409 346.214 245.995 347.14 246.799 347.835C247.617 348.53 248.687 348.878 250.009 348.878ZM271.794 351.985C270.227 351.985 269.014 351.774 268.155 351.351C267.297 350.929 266.697 350.322 266.357 349.532C266.016 348.728 265.846 347.76 265.846 346.629V333.853H262.411V330.705H265.989L267.052 324.491H270.241V330.685H274.983V333.853H270.241L270.261 346.466C270.261 347.161 270.329 347.672 270.465 347.999C270.615 348.312 270.861 348.517 271.201 348.612C271.556 348.694 272.033 348.735 272.632 348.735H275.085V351.576C274.826 351.685 274.424 351.78 273.879 351.862C273.348 351.944 272.653 351.985 271.794 351.985ZM279.99 351.842V330.705H284.201V351.842H279.99ZM279.888 326.617V322.304H284.283V326.617H279.888ZM290.468 351.842V330.705H294.74V333.751C295.081 333.179 295.538 332.641 296.11 332.136C296.696 331.632 297.411 331.223 298.256 330.91C299.115 330.596 300.103 330.44 301.22 330.44C302.542 330.44 303.762 330.705 304.879 331.237C306.01 331.755 306.917 332.572 307.598 333.69C308.279 334.794 308.62 336.225 308.62 337.983V351.842H304.246V338.453C304.246 336.94 303.837 335.816 303.019 335.08C302.215 334.344 301.173 333.976 299.892 333.976C299.033 333.976 298.215 334.119 297.439 334.405C296.662 334.691 296.035 335.128 295.558 335.714C295.081 336.286 294.843 337.008 294.843 337.88V351.842H290.468ZM323.401 358.833C319.967 358.833 317.31 358.349 315.429 357.381C313.549 356.427 312.608 355.092 312.608 353.375C312.608 352.625 312.786 351.992 313.14 351.474C313.508 350.942 313.937 350.506 314.428 350.166C314.932 349.825 315.395 349.559 315.818 349.368C316.24 349.164 316.513 349.021 316.635 348.939C316.404 348.803 316.104 348.633 315.736 348.428C315.382 348.21 315.061 347.924 314.775 347.57C314.489 347.202 314.346 346.725 314.346 346.139C314.346 345.457 314.666 344.83 315.307 344.258C315.961 343.672 316.942 343.243 318.25 342.97C316.969 342.343 315.974 341.498 315.266 340.436C314.557 339.373 314.203 338.241 314.203 337.042C314.203 335.666 314.591 334.48 315.368 333.485C316.145 332.477 317.235 331.707 318.639 331.176C320.056 330.644 321.718 330.378 323.626 330.378C325.03 330.378 326.195 330.535 327.122 330.849C328.062 331.162 328.927 331.598 329.718 332.157C329.977 332.061 330.345 331.918 330.822 331.727C331.312 331.523 331.844 331.305 332.416 331.073C332.988 330.842 333.534 330.617 334.051 330.399C334.583 330.181 335.012 330.004 335.339 329.867L335.319 333.669L331.639 334.344C331.83 334.753 331.98 335.203 332.089 335.693C332.212 336.184 332.273 336.633 332.273 337.042C332.273 338.269 331.939 339.4 331.271 340.436C330.604 341.458 329.602 342.275 328.267 342.888C326.931 343.502 325.262 343.808 323.258 343.808C323.068 343.808 322.822 343.808 322.523 343.808C322.223 343.795 321.971 343.774 321.766 343.747C320.499 343.788 319.627 343.938 319.15 344.197C318.673 344.442 318.434 344.715 318.434 345.014C318.434 345.396 318.741 345.655 319.354 345.791C319.967 345.927 320.976 346.043 322.379 346.139C322.884 346.18 323.524 346.22 324.301 346.261C325.091 346.302 325.963 346.357 326.917 346.425C329.234 346.561 330.999 347.14 332.212 348.162C333.438 349.184 334.051 350.54 334.051 352.23C334.051 354.165 333.172 355.746 331.415 356.973C329.657 358.213 326.986 358.833 323.401 358.833ZM324.158 356.155C326.025 356.155 327.435 355.882 328.389 355.337C329.343 354.806 329.82 354.009 329.82 352.946C329.82 352.155 329.513 351.508 328.9 351.004C328.287 350.499 327.367 350.206 326.141 350.125L320.499 349.757C319.94 349.73 319.381 349.852 318.823 350.125C318.278 350.397 317.828 350.779 317.473 351.269C317.119 351.746 316.942 352.278 316.942 352.864C316.942 353.927 317.528 354.738 318.7 355.296C319.872 355.869 321.691 356.155 324.158 356.155ZM323.381 341.131C324.798 341.131 325.936 340.79 326.795 340.108C327.667 339.413 328.103 338.419 328.103 337.124C328.103 335.789 327.667 334.76 326.795 334.037C325.936 333.301 324.798 332.934 323.381 332.934C321.95 332.934 320.792 333.301 319.906 334.037C319.034 334.773 318.598 335.802 318.598 337.124C318.598 338.378 319.013 339.359 319.845 340.068C320.69 340.776 321.868 341.131 323.381 341.131Z" fill="black" fill-opacity="0.46"/>
</g>
<rect x="137.318" y="404.391" width="1759.58" height="179.758" rx="27.5514" fill="#EAEFFB"/>
<rect x="137.318" y="404.391" width="1759.58" height="179.758" rx="27.5514" stroke="#ABBAEF" stroke-width="1.77751"/>
<rect x="193.309" y="460.382" width="1300" height="25" rx="12.5" fill="#B9BBC5"/>
<g clip-path="url(#clip2_64_544)">
<rect x="193.309" y="503.157" width="1000" height="25" rx="12.5" fill="#D0D2DD"/>
</g>
<circle cx="1654.27" cy="494.27" r="15.9976" fill="#325CD2"/>
<circle cx="1696.93" cy="494.27" r="15.9976" fill="#325CD2"/>
<circle cx="1739.59" cy="494.27" r="15.9976" fill="#325CD2"/>
<circle cx="1782.25" cy="494.27" r="15.9976" fill="#325CD2"/>
<circle cx="1824.91" cy="494.27" r="15.9976" fill="#325CD2"/>
<rect x="136.43" y="627.698" width="1761.36" height="180.536" rx="28.4402" fill="#F5F5F5"/>
<rect x="193.309" y="684.578" width="1300" height="24" rx="12" fill="#B9BBC5"/>
<g clip-path="url(#clip3_64_544)">
<rect x="193.309" y="726.354" width="1000" height="25" rx="12.5" fill="#D0D2DD"/>
</g>
<circle cx="1654.27" cy="717.966" r="15.9976" fill="#325CD2"/>
<circle cx="1696.93" cy="717.966" r="15.9976" fill="#325CD2"/>
<circle cx="1739.59" cy="717.966" r="15.9976" fill="#325CD2"/>
<circle cx="1782.25" cy="717.966" r="15.9976" fill="#D0D2DD"/>
<circle cx="1824.91" cy="717.966" r="15.9976" fill="#D0D2DD"/>
<rect x="136.43" y="850.895" width="1761.36" height="180.536" rx="28.4402" fill="#F5F5F5"/>
<rect x="193.309" y="907.774" width="1300" height="25" rx="12.5" fill="#B9BBC5"/>
<g clip-path="url(#clip4_64_544)">
<rect x="193.309" y="950.55" width="1000" height="24" rx="12" fill="#D0D2DD"/>
</g>
<circle cx="1654.27" cy="941.163" r="15.9976" fill="#325CD2"/>
<circle cx="1696.93" cy="941.163" r="15.9976" fill="#D0D2DD"/>
<circle cx="1739.59" cy="941.163" r="15.9976" fill="#D0D2DD"/>
<circle cx="1782.25" cy="941.163" r="15.9976" fill="#D0D2DD"/>
<circle cx="1824.91" cy="941.163" r="15.9976" fill="#D0D2DD"/>
</g>
<defs>
<clipPath id="clip0_64_544">
<rect width="2034.22" height="1249.28" rx="79.988" fill="white"/>
</clipPath>
<clipPath id="clip1_64_544">
<rect width="1761.36" height="48" fill="white" transform="translate(136.43 312.842)"/>
</clipPath>
<clipPath id="clip2_64_544">
<rect width="1409.41" height="25" fill="white" transform="translate(193.309 503.157)"/>
</clipPath>
<clipPath id="clip3_64_544">
<rect width="1409.41" height="25" fill="white" transform="translate(193.309 726.354)"/>
</clipPath>
<clipPath id="clip4_64_544">
<rect width="1409.41" height="24" fill="white" transform="translate(193.309 950.55)"/>
</clipPath>
</defs>
</svg>
