<svg width="2035" height="1250" viewBox="0 0 2035 1250" fill="none" xmlns="http://www.w3.org/2000/svg">
<g clip-path="url(#clip0_84_96)">
<rect width="2055.79" height="156.632" fill="#F4F4F4"/>
<path d="M181.031 63.5816C181.031 64.4039 180.742 65.1044 180.163 65.6831C179.585 66.2617 178.884 66.5511 178.062 66.5511C177.24 66.5511 176.539 66.2617 175.96 65.6831C175.382 65.1044 175.092 64.4039 175.092 63.5816C175.092 62.7593 175.382 62.0588 175.96 61.4801C176.539 60.9015 177.24 60.6121 178.062 60.6121C178.884 60.6121 179.585 60.9015 180.163 61.4801C180.742 62.0588 181.031 62.7593 181.031 63.5816ZM173.448 104.012C172.534 104.012 171.712 103.86 170.981 103.555L172.077 99.9006C172.565 100.083 172.976 100.175 173.311 100.175C175.016 100.175 175.9 99.1239 175.96 97.0224V71.3022H180.163V96.3829C180.163 101.469 177.925 104.012 173.448 104.012ZM186.643 86.8349C186.643 87.9313 187.1 88.845 188.014 89.5759C188.958 90.3069 190.055 90.6723 191.303 90.6723C193.07 90.6723 194.638 90.0175 196.009 88.7079C197.41 87.3983 198.11 85.8603 198.11 84.0938C196.801 83.0583 194.973 82.5406 192.628 82.5406C190.923 82.5406 189.491 82.9517 188.334 83.774C187.207 84.5963 186.643 85.6166 186.643 86.8349ZM192.08 70.5713C195.186 70.5713 197.638 71.4088 199.435 73.0839C201.232 74.7286 202.13 76.9975 202.13 79.8909V93.6875H198.11V90.581H197.927C196.191 93.1393 193.877 94.4184 190.983 94.4184C188.516 94.4184 186.445 93.6875 184.77 92.2256C183.126 90.7637 182.303 88.9363 182.303 86.7435C182.303 84.4288 183.171 82.5862 184.907 81.2157C186.674 79.8452 189.019 79.1599 191.943 79.1599C194.44 79.1599 196.496 79.6168 198.11 80.5304V79.5711C198.11 78.1092 197.531 76.8757 196.374 75.8707C195.217 74.8351 193.862 74.3174 192.308 74.3174C189.963 74.3174 188.105 75.3072 186.735 77.2869L183.034 74.957C185.075 72.0332 188.09 70.5713 192.08 70.5713ZM209.246 93.6875H205.043V71.3022H209.064V74.4088H209.246C209.886 73.3123 210.861 72.3987 212.17 71.6677C213.51 70.9368 214.835 70.5713 216.145 70.5713C217.789 70.5713 219.236 70.952 220.485 71.7134C221.733 72.4748 222.647 73.5255 223.226 74.8656C225.084 72.0027 227.657 70.5713 230.946 70.5713C233.535 70.5713 235.53 71.3631 236.931 72.9469C238.332 74.5306 239.033 76.7843 239.033 79.7081V93.6875H234.83V80.3477C234.83 78.2462 234.449 76.7387 233.687 75.825C232.926 74.8808 231.647 74.4088 229.85 74.4088C228.236 74.4088 226.881 75.094 225.784 76.4646C224.688 77.8351 224.139 79.4493 224.139 81.3071V93.6875H219.937V80.3477C219.937 78.2462 219.556 76.7387 218.794 75.825C218.033 74.8808 216.754 74.4088 214.957 74.4088C213.343 74.4088 211.987 75.094 210.891 76.4646C209.795 77.8351 209.246 79.4493 209.246 81.3071V93.6875Z" fill="black"/>
<rect x="104.422" y="67.9121" width="58.7368" height="32.6316" rx="16.3158" transform="rotate(-11.0157 104.422 67.9121)" fill="#E4ECFF"/>
<path d="M116.334 70.9263L120.352 91.5666L117.7 92.0829L113.682 71.4425L116.334 70.9263ZM129.875 90.1916C127.799 90.5957 125.95 90.2175 124.328 89.0573C122.706 87.897 121.684 86.231 121.261 84.0594C120.842 81.9069 121.147 79.9924 122.177 78.3159C123.204 76.6201 124.735 75.574 126.772 75.1774C128.867 74.7696 130.662 75.1283 132.158 76.2534C133.669 77.3555 134.662 79.1269 135.137 81.5676L135.165 81.8615L124.066 84.0219C124.374 85.3982 125.052 86.423 126.101 87.0966C127.149 87.7701 128.289 87.9871 129.519 87.7477C131.21 87.4185 132.371 86.3147 133.003 84.4365L135.591 85.1294C135.189 86.4444 134.486 87.5486 133.483 88.4419C132.5 89.3315 131.297 89.9148 129.875 90.1916ZM123.841 81.7918L131.942 80.2149C131.674 79.2498 131.113 78.5211 130.26 78.0291C129.421 77.5141 128.397 77.3745 127.186 77.6101C126.187 77.8047 125.382 78.2805 124.771 79.0377C124.18 79.7911 123.87 80.7091 123.841 81.7918ZM144.113 87.1805C142.96 87.405 141.93 87.2365 141.023 86.6751C140.135 86.1099 139.558 85.195 139.292 83.9303L137.754 76.0316L135.275 76.5142L134.804 74.0927L137.283 73.6101L136.441 69.286L139.093 68.7698L139.935 73.0939L143.394 72.4205L143.866 74.842L140.406 75.5154L141.776 82.5492C141.959 83.4909 142.267 84.0992 142.699 84.374C143.128 84.6297 143.573 84.7126 144.034 84.6228C144.246 84.5817 144.444 84.5232 144.628 84.4473C144.829 84.3485 145.008 84.2438 145.166 84.1333L146.462 86.3344C145.819 86.7189 145.036 87.0009 144.113 87.1805ZM158.995 79.9751C159.235 81.205 158.899 82.3476 157.987 83.4027C157.075 84.4578 155.803 85.1443 154.169 85.4623C152.747 85.7392 151.427 85.6172 150.209 85.0964C148.986 84.5564 148.027 83.7259 147.33 82.6049L149.497 81.1358C150.008 81.9141 150.637 82.4798 151.384 82.8331C152.146 83.1634 152.921 83.2519 153.709 83.0985C154.555 82.9339 155.221 82.6147 155.707 82.1411C156.212 81.6637 156.417 81.1752 156.319 80.6755C156.143 79.7723 155.323 79.2439 153.857 79.0905L151.317 78.9565C148.434 78.7996 146.802 77.741 146.42 75.7808C146.17 74.4932 146.489 73.364 147.377 72.3932C148.28 71.3995 149.549 70.7437 151.182 70.4257C152.432 70.1825 153.614 70.2615 154.729 70.6628C155.864 71.0603 156.73 71.7194 157.328 72.6402L155.155 74.0805C154.77 73.5371 154.238 73.1619 153.56 72.9549C152.897 72.7249 152.19 72.6829 151.441 72.8288C150.749 72.9635 150.158 73.258 149.668 73.7125C149.197 74.1631 149.011 74.6383 149.108 75.138C149.265 75.9451 150.136 76.3739 151.722 76.4243L153.962 76.5568C156.902 76.7024 158.58 77.8418 158.995 79.9751Z" fill="black"/>
<rect x="1873.05" y="39.1582" width="78.3158" height="78.3158" rx="39.1579" fill="white"/>
<path d="M1908.28 65.1645C1908.43 64.2802 1909.2 63.6309 1910.09 63.6309H1914.32C1915.22 63.6309 1915.99 64.2802 1916.14 65.1645L1916.48 67.2546C1916.59 67.8648 1916.99 68.3739 1917.54 68.6741C1917.66 68.7393 1917.78 68.8095 1917.89 68.8813C1918.42 69.2011 1919.07 69.3006 1919.65 69.0836L1921.63 68.3396C1922.04 68.1866 1922.49 68.1829 1922.9 68.3293C1923.31 68.4757 1923.65 68.7627 1923.87 69.1391L1925.98 72.8052C1926.2 73.1816 1926.28 73.6229 1926.2 74.0504C1926.12 74.4779 1925.9 74.864 1925.56 75.14L1923.92 76.4893C1923.45 76.8825 1923.21 77.4895 1923.22 78.1079C1923.22 78.2465 1923.22 78.3852 1923.22 78.5239C1923.21 79.1406 1923.45 79.7476 1923.92 80.1408L1925.56 81.4901C1926.25 82.0612 1926.43 83.0483 1925.99 83.8233L1923.87 87.4894C1923.65 87.8657 1923.31 88.1528 1922.9 88.2995C1922.49 88.4462 1922.04 88.443 1921.63 88.2905L1919.65 87.5465C1919.07 87.3295 1918.42 87.4291 1917.89 87.7489C1917.77 87.8208 1917.65 87.8904 1917.53 87.9577C1916.99 88.2563 1916.59 88.7653 1916.48 89.3755L1916.14 91.4656C1915.99 92.3515 1915.22 92.9993 1914.32 92.9993H1910.09C1909.19 92.9993 1908.43 92.3499 1908.28 91.4656L1907.93 89.3755C1907.83 88.7653 1907.42 88.2563 1906.88 87.9561C1906.76 87.8893 1906.64 87.8203 1906.52 87.7489C1905.99 87.4291 1905.35 87.3295 1904.77 87.5465L1902.78 88.2905C1902.38 88.4431 1901.93 88.4465 1901.52 88.3002C1901.11 88.1538 1900.77 87.8671 1900.55 87.4911L1898.43 83.8249C1898.22 83.4485 1898.14 83.0073 1898.22 82.5797C1898.29 82.1522 1898.52 81.7661 1898.86 81.4901L1900.5 80.1408C1900.97 79.7492 1901.21 79.1406 1901.2 78.5239C1901.19 78.3852 1901.19 78.2465 1901.2 78.1079C1901.21 77.4879 1900.97 76.8825 1900.5 76.4893L1898.86 75.14C1898.52 74.8641 1898.3 74.4783 1898.22 74.0511C1898.14 73.624 1898.22 73.1831 1898.43 72.8069L1900.55 69.1407C1900.77 68.764 1901.11 68.4767 1901.52 68.33C1901.93 68.1833 1902.38 68.1867 1902.78 68.3396L1904.77 69.0836C1905.35 69.3006 1905.99 69.2011 1906.52 68.8813C1906.64 68.8095 1906.76 68.741 1906.88 68.6724C1907.42 68.3739 1907.83 67.8648 1907.93 67.2546L1908.28 65.1645Z" stroke="black" stroke-width="2.44737" stroke-linecap="round" stroke-linejoin="round"/>
<path d="M1917.1 78.3166C1917.1 79.6148 1916.59 80.8598 1915.67 81.7777C1914.75 82.6957 1913.51 83.2113 1912.21 83.2113C1910.91 83.2113 1909.66 82.6957 1908.75 81.7777C1907.83 80.8598 1907.31 79.6148 1907.31 78.3166C1907.31 77.0184 1907.83 75.7735 1908.75 74.8555C1909.66 73.9376 1910.91 73.4219 1912.21 73.4219C1913.51 73.4219 1914.75 73.9376 1915.67 74.8555C1916.59 75.7735 1917.1 77.0184 1917.1 78.3166Z" stroke="black" stroke-width="2.44737" stroke-linecap="round" stroke-linejoin="round"/>
<rect width="2034" height="1093" transform="translate(0 156.631)" fill="#F4F4F4"/>
<rect x="31" y="208.842" width="1972" height="903" rx="45.6842" fill="white"/>
<g clip-path="url(#clip1_84_96)">
<path d="M112.75 323.158V296.027H123.52C125.534 296.027 127.204 296.339 128.53 296.965C129.856 297.578 130.844 298.453 131.494 299.592C132.145 300.73 132.47 302.075 132.47 303.626C132.47 305.089 132.22 306.309 131.72 307.285C131.232 308.26 130.594 309.055 129.806 309.667C129.03 310.28 128.211 310.762 127.348 311.112L132.601 323.158H128.38L123.576 311.806H116.765V323.158H112.75ZM116.765 308.56H122.432C124.321 308.56 125.784 308.154 126.822 307.341C127.861 306.515 128.38 305.339 128.38 303.813C128.38 302.312 127.904 301.174 126.954 300.398C126.016 299.623 124.74 299.235 123.126 299.235H116.765V308.56ZM145.399 323.533C143.561 323.533 141.941 323.139 140.54 322.351C139.139 321.551 138.044 320.413 137.256 318.936C136.481 317.46 136.093 315.703 136.093 313.664C136.093 311.65 136.449 309.874 137.162 308.335C137.875 306.784 138.907 305.571 140.258 304.695C141.609 303.82 143.235 303.382 145.137 303.382C147.001 303.382 148.577 303.782 149.865 304.583C151.153 305.383 152.129 306.509 152.792 307.96C153.455 309.399 153.787 311.1 153.787 313.064V314.396H140.127C140.114 315.559 140.302 316.604 140.69 317.529C141.078 318.442 141.653 319.168 142.416 319.706C143.192 320.231 144.155 320.494 145.306 320.494C146.469 320.494 147.47 320.231 148.308 319.706C149.158 319.18 149.715 318.399 149.978 317.36H153.693C153.468 318.686 152.936 319.812 152.098 320.738C151.26 321.663 150.253 322.364 149.077 322.839C147.901 323.302 146.675 323.533 145.399 323.533ZM140.127 311.788H149.959C149.959 310.775 149.784 309.855 149.434 309.03C149.083 308.191 148.545 307.535 147.82 307.059C147.107 306.572 146.206 306.328 145.118 306.328C144.005 306.328 143.079 306.597 142.341 307.134C141.603 307.672 141.046 308.36 140.671 309.198C140.308 310.037 140.127 310.9 140.127 311.788ZM160.029 323.158V306.647H156.07V303.757H160.029V300.811C160.029 299.26 160.436 298.078 161.249 297.265C162.074 296.439 163.288 296.027 164.889 296.027H168.773L168.792 298.804H165.977C165.214 298.804 164.689 299.01 164.401 299.423C164.126 299.823 163.988 300.442 163.988 301.28V303.757H168.604V306.647H164.063V323.158H160.029ZM177.666 323.421C176.516 323.421 175.59 323.271 174.89 322.971C174.202 322.67 173.676 322.27 173.313 321.77C172.951 321.257 172.707 320.681 172.582 320.044C172.469 319.393 172.413 318.724 172.413 318.036V295.276H176.372V317.623C176.372 318.524 176.547 319.212 176.897 319.687C177.26 320.162 177.81 320.431 178.548 320.494L179.562 320.531V323.083C179.249 323.183 178.924 323.265 178.586 323.327C178.261 323.39 177.954 323.421 177.666 323.421ZM191.464 323.533C189.626 323.533 188.006 323.139 186.605 322.351C185.204 321.551 184.109 320.413 183.321 318.936C182.546 317.46 182.158 315.703 182.158 313.664C182.158 311.65 182.514 309.874 183.227 308.335C183.94 306.784 184.972 305.571 186.323 304.695C187.674 303.82 189.3 303.382 191.202 303.382C193.066 303.382 194.642 303.782 195.93 304.583C197.218 305.383 198.194 306.509 198.857 307.96C199.52 309.399 199.852 311.1 199.852 313.064V314.396H186.192C186.179 315.559 186.367 316.604 186.755 317.529C187.143 318.442 187.718 319.168 188.481 319.706C189.257 320.231 190.22 320.494 191.371 320.494C192.534 320.494 193.535 320.231 194.373 319.706C195.223 319.18 195.78 318.399 196.043 317.36H199.758C199.533 318.686 199.001 319.812 198.163 320.738C197.325 321.663 196.318 322.364 195.142 322.839C193.966 323.302 192.74 323.533 191.464 323.533ZM186.192 311.788H196.024C196.024 310.775 195.849 309.855 195.499 309.03C195.148 308.191 194.61 307.535 193.885 307.059C193.172 306.572 192.271 306.328 191.183 306.328C190.07 306.328 189.144 306.597 188.406 307.134C187.668 307.672 187.111 308.36 186.736 309.198C186.373 310.037 186.192 310.9 186.192 311.788ZM212.398 323.533C210.647 323.533 209.089 323.152 207.726 322.389C206.362 321.613 205.293 320.481 204.517 318.993C203.742 317.492 203.354 315.672 203.354 313.533C203.354 311.519 203.711 309.749 204.424 308.223C205.149 306.697 206.187 305.508 207.538 304.658C208.889 303.807 210.509 303.382 212.398 303.382C213.861 303.382 215.156 303.67 216.282 304.245C217.408 304.808 218.321 305.596 219.021 306.609C219.734 307.622 220.166 308.804 220.316 310.155H216.826C216.726 309.517 216.488 308.923 216.113 308.373C215.738 307.822 215.244 307.385 214.631 307.059C214.018 306.722 213.286 306.553 212.435 306.553C210.872 306.553 209.602 307.122 208.627 308.26C207.651 309.399 207.163 311.144 207.163 313.495C207.163 315.647 207.62 317.36 208.533 318.636C209.446 319.912 210.766 320.55 212.492 320.55C213.342 320.55 214.074 320.375 214.687 320.025C215.3 319.675 215.788 319.224 216.151 318.674C216.526 318.123 216.764 317.554 216.864 316.966H220.278C220.128 318.267 219.697 319.412 218.984 320.4C218.283 321.388 217.37 322.158 216.244 322.708C215.119 323.258 213.836 323.533 212.398 323.533ZM231.515 323.29C230.077 323.29 228.963 323.096 228.175 322.708C227.387 322.32 226.837 321.763 226.524 321.038C226.212 320.3 226.055 319.412 226.055 318.374V306.647H222.903V303.757H226.187L227.162 298.053H230.089V303.738H234.442V306.647H230.089L230.108 318.223C230.108 318.861 230.171 319.331 230.296 319.631C230.433 319.918 230.658 320.106 230.971 320.194C231.296 320.269 231.734 320.306 232.285 320.306H234.536V322.914C234.298 323.014 233.929 323.102 233.429 323.177C232.941 323.252 232.303 323.29 231.515 323.29ZM239.039 323.158V303.757H242.904V323.158H239.039ZM238.945 300.004V296.045H242.979V300.004H238.945ZM248.656 323.158V303.757H252.578V306.553C252.891 306.027 253.31 305.533 253.835 305.071C254.373 304.608 255.03 304.232 255.805 303.945C256.593 303.657 257.5 303.513 258.526 303.513C259.739 303.513 260.859 303.757 261.884 304.245C262.923 304.72 263.754 305.471 264.38 306.497C265.005 307.51 265.318 308.823 265.318 310.437V323.158H261.303V310.868C261.303 309.48 260.927 308.448 260.177 307.772C259.439 307.097 258.482 306.759 257.306 306.759C256.518 306.759 255.768 306.891 255.055 307.153C254.342 307.416 253.766 307.816 253.328 308.354C252.891 308.879 252.672 309.542 252.672 310.343V323.158H248.656ZM278.886 329.575C275.734 329.575 273.294 329.131 271.568 328.243C269.842 327.367 268.979 326.142 268.979 324.565C268.979 323.877 269.141 323.296 269.467 322.82C269.804 322.333 270.198 321.932 270.649 321.62C271.112 321.307 271.537 321.063 271.925 320.888C272.312 320.7 272.563 320.569 272.675 320.494C272.463 320.369 272.187 320.212 271.85 320.025C271.524 319.825 271.23 319.562 270.968 319.237C270.705 318.899 270.574 318.461 270.574 317.923C270.574 317.298 270.868 316.722 271.456 316.197C272.056 315.659 272.957 315.265 274.157 315.015C272.982 314.44 272.069 313.664 271.418 312.688C270.768 311.713 270.442 310.674 270.442 309.574C270.442 308.31 270.799 307.222 271.512 306.309C272.225 305.383 273.226 304.676 274.514 304.189C275.815 303.701 277.341 303.457 279.092 303.457C280.381 303.457 281.45 303.601 282.301 303.888C283.164 304.176 283.958 304.576 284.684 305.089C284.921 305.002 285.259 304.87 285.697 304.695C286.147 304.508 286.635 304.307 287.16 304.095C287.686 303.882 288.186 303.676 288.661 303.476C289.149 303.276 289.543 303.113 289.843 302.988L289.825 306.478L286.447 307.097C286.622 307.472 286.76 307.885 286.86 308.335C286.973 308.786 287.029 309.198 287.029 309.574C287.029 310.699 286.723 311.738 286.11 312.688C285.497 313.627 284.577 314.377 283.351 314.94C282.126 315.503 280.593 315.784 278.754 315.784C278.579 315.784 278.354 315.784 278.079 315.784C277.804 315.772 277.572 315.753 277.385 315.728C276.221 315.766 275.421 315.903 274.983 316.141C274.545 316.366 274.326 316.616 274.326 316.891C274.326 317.242 274.608 317.479 275.171 317.604C275.734 317.729 276.659 317.836 277.948 317.923C278.41 317.961 278.998 317.998 279.711 318.036C280.437 318.073 281.237 318.123 282.113 318.186C284.24 318.311 285.859 318.843 286.973 319.781C288.099 320.719 288.661 321.964 288.661 323.515C288.661 325.291 287.855 326.742 286.241 327.868C284.627 329.006 282.176 329.575 278.886 329.575ZM279.58 327.117C281.294 327.117 282.588 326.867 283.464 326.367C284.34 325.879 284.777 325.147 284.777 324.171C284.777 323.446 284.496 322.852 283.933 322.389C283.37 321.926 282.526 321.657 281.4 321.582L276.221 321.244C275.709 321.219 275.196 321.332 274.683 321.582C274.182 321.832 273.77 322.183 273.444 322.633C273.119 323.071 272.957 323.558 272.957 324.096C272.957 325.072 273.495 325.816 274.57 326.329C275.646 326.855 277.316 327.117 279.58 327.117ZM278.867 313.326C280.168 313.326 281.212 313.014 282 312.388C282.801 311.75 283.201 310.837 283.201 309.649C283.201 308.423 282.801 307.478 282 306.815C281.212 306.14 280.168 305.802 278.867 305.802C277.554 305.802 276.49 306.14 275.677 306.815C274.877 307.491 274.476 308.435 274.476 309.649C274.476 310.8 274.858 311.7 275.621 312.351C276.397 313.001 277.479 313.326 278.867 313.326ZM302.82 329.2V303.757H306.836L306.873 306.984C307.111 306.559 307.417 306.14 307.792 305.727C308.168 305.302 308.612 304.914 309.125 304.564C309.65 304.201 310.244 303.913 310.907 303.701C311.583 303.488 312.327 303.382 313.14 303.382C314.666 303.382 316.011 303.738 317.174 304.451C318.35 305.152 319.263 306.234 319.913 307.697C320.576 309.148 320.908 310.993 320.908 313.232C320.908 315.484 320.576 317.373 319.913 318.899C319.263 320.425 318.331 321.582 317.118 322.37C315.904 323.146 314.466 323.533 312.802 323.533C312.002 323.533 311.282 323.421 310.644 323.196C310.007 322.971 309.444 322.677 308.956 322.314C308.468 321.939 308.049 321.538 307.699 321.113C307.361 320.675 307.079 320.244 306.854 319.818V329.2H302.82ZM311.958 320.475C313.446 320.475 314.666 319.9 315.617 318.749C316.58 317.586 317.061 315.772 317.061 313.308C317.061 311.194 316.617 309.524 315.729 308.298C314.854 307.059 313.597 306.44 311.958 306.44C310.269 306.44 308.993 307.084 308.13 308.373C307.267 309.649 306.836 311.294 306.836 313.308C306.836 314.621 307.023 315.822 307.398 316.91C307.786 317.986 308.362 318.849 309.125 319.499C309.888 320.15 310.832 320.475 311.958 320.475ZM325.285 323.158V303.757H329.131V307.735C329.456 306.784 329.907 305.99 330.482 305.352C331.07 304.702 331.752 304.214 332.527 303.888C333.303 303.551 334.122 303.382 334.985 303.382C335.248 303.382 335.498 303.401 335.736 303.438C335.973 303.463 336.161 303.513 336.299 303.588V307.453C336.136 307.378 335.923 307.328 335.661 307.303C335.411 307.278 335.192 307.26 335.004 307.247C334.153 307.185 333.378 307.228 332.677 307.378C331.977 307.528 331.37 307.779 330.857 308.129C330.357 308.479 329.969 308.936 329.694 309.499C329.431 310.062 329.3 310.724 329.3 311.488V323.158H325.285ZM340.257 323.158V303.757H344.122V323.158H340.257ZM340.163 300.004V296.045H344.197V300.004H340.163ZM354.815 323.158L347.722 303.757H351.437L356.353 318.073H356.616L361.532 303.757H365.247L358.192 323.158H354.815ZM373.77 323.533C372.519 323.533 371.406 323.308 370.43 322.858C369.467 322.408 368.71 321.757 368.16 320.907C367.609 320.056 367.334 319.03 367.334 317.829C367.334 315.678 368.091 314.071 369.604 313.007C371.131 311.944 373.57 311.381 376.922 311.319L380.112 311.225V309.818C380.112 308.704 379.78 307.829 379.117 307.191C378.454 306.553 377.429 306.24 376.04 306.253C375.015 306.253 374.095 306.49 373.282 306.966C372.469 307.441 371.937 308.223 371.687 309.311H368.216C368.291 308.023 368.66 306.941 369.323 306.065C369.999 305.177 370.924 304.508 372.1 304.057C373.276 303.607 374.652 303.382 376.228 303.382C378.004 303.382 379.461 303.626 380.6 304.114C381.738 304.589 382.582 305.289 383.133 306.215C383.696 307.141 383.977 308.267 383.977 309.592V323.158H380.562L380.262 319.593C379.536 321.082 378.617 322.114 377.504 322.689C376.391 323.252 375.146 323.533 373.77 323.533ZM375.027 320.738C375.64 320.738 376.247 320.631 376.847 320.419C377.447 320.194 377.992 319.893 378.479 319.518C378.967 319.13 379.355 318.699 379.643 318.223C379.943 317.748 380.099 317.26 380.112 316.76V313.551L377.485 313.608C376.147 313.62 375.008 313.758 374.07 314.021C373.144 314.283 372.431 314.69 371.931 315.24C371.443 315.791 371.199 316.522 371.199 317.435C371.199 318.474 371.556 319.287 372.269 319.875C372.994 320.45 373.914 320.738 375.027 320.738ZM395.766 323.29C394.328 323.29 393.214 323.096 392.426 322.708C391.638 322.32 391.088 321.763 390.775 321.038C390.462 320.3 390.306 319.412 390.306 318.374V306.647H387.154V303.757H390.437L391.413 298.053H394.34V303.738H398.693V306.647H394.34L394.359 318.223C394.359 318.861 394.421 319.331 394.547 319.631C394.684 319.918 394.909 320.106 395.222 320.194C395.547 320.269 395.985 320.306 396.535 320.306H398.787V322.914C398.549 323.014 398.18 323.102 397.68 323.177C397.192 323.252 396.554 323.29 395.766 323.29ZM411.089 323.533C409.25 323.533 407.63 323.139 406.229 322.351C404.828 321.551 403.733 320.413 402.945 318.936C402.17 317.46 401.782 315.703 401.782 313.664C401.782 311.65 402.139 309.874 402.852 308.335C403.565 306.784 404.597 305.571 405.948 304.695C407.298 303.82 408.925 303.382 410.826 303.382C412.69 303.382 414.266 303.782 415.554 304.583C416.843 305.383 417.818 306.509 418.481 307.96C419.144 309.399 419.476 311.1 419.476 313.064V314.396H405.816C405.804 315.559 405.991 316.604 406.379 317.529C406.767 318.442 407.342 319.168 408.105 319.706C408.881 320.231 409.844 320.494 410.995 320.494C412.158 320.494 413.159 320.231 413.997 319.706C414.848 319.18 415.404 318.399 415.667 317.36H419.382C419.157 318.686 418.625 319.812 417.787 320.738C416.949 321.663 415.942 322.364 414.766 322.839C413.59 323.302 412.365 323.533 411.089 323.533ZM405.816 311.788H415.648C415.648 310.775 415.473 309.855 415.123 309.03C414.772 308.191 414.235 307.535 413.509 307.059C412.796 306.572 411.895 306.328 410.807 306.328C409.694 306.328 408.768 306.597 408.03 307.134C407.292 307.672 406.736 308.36 406.36 309.198C405.998 310.037 405.816 310.9 405.816 311.788ZM429.302 323.421C428.151 323.421 427.225 323.271 426.525 322.971C425.837 322.67 425.311 322.27 424.948 321.77C424.586 321.257 424.342 320.681 424.217 320.044C424.104 319.393 424.048 318.724 424.048 318.036V295.276H428.007V317.623C428.007 318.524 428.182 319.212 428.532 319.687C428.895 320.162 429.445 320.431 430.183 320.494L431.197 320.531V323.083C430.884 323.183 430.559 323.265 430.221 323.327C429.896 323.39 429.589 323.421 429.302 323.421ZM437.091 329.35C435.903 329.35 435.078 329.262 434.615 329.087C434.164 328.912 433.939 328.825 433.939 328.825V326.235L435.909 326.273C436.66 326.31 437.279 326.267 437.767 326.142C438.255 326.016 438.636 325.841 438.912 325.616C439.199 325.404 439.412 325.172 439.549 324.922C439.7 324.672 439.812 324.44 439.887 324.228L440.488 322.595L432.926 303.757H436.941L442.383 318.092L447.805 303.757H451.727L443.64 324.246C443.089 325.597 442.483 326.642 441.82 327.38C441.169 328.118 440.45 328.631 439.662 328.918C438.874 329.206 438.017 329.35 437.091 329.35Z" fill="black" fill-opacity="0.46"/>
</g>
<rect x="109.316" y="370.316" width="1815.37" height="166.421" rx="26.1053" fill="#F5F5F5"/>
<circle cx="190.896" cy="453.527" r="29.3684" fill="#D9D9D9"/>
<path d="M194.433 450.209V448.686C194.433 446.554 192.758 444.879 190.626 444.879C188.494 444.879 186.819 446.554 186.819 448.686V450.209C185.525 450.209 184.535 451.199 184.535 452.493V457.823C184.535 459.117 185.525 460.107 186.819 460.107H194.433C195.728 460.107 196.718 459.117 196.718 457.823V452.493C196.718 451.199 195.728 450.209 194.433 450.209ZM188.342 448.686C188.342 447.392 189.332 446.402 190.626 446.402C191.921 446.402 192.911 447.392 192.911 448.686V450.209H188.342V448.686Z" fill="black" fill-opacity="0.3"/>
<rect x="252.895" y="422.527" width="1383.58" height="22.8421" rx="11.4211" fill="#B9BBC5"/>
<g clip-path="url(#clip2_84_96)">
<rect x="252.895" y="461.686" width="1137.21" height="22.8421" rx="11.4211" fill="#D0D2DD"/>
</g>
<rect x="109.316" y="575.896" width="1815.37" height="166.421" rx="26.1053" fill="#F5F5F5"/>
<circle cx="190.896" cy="659.106" r="29.3684" fill="#D9D9D9"/>
<path d="M194.433 655.787V654.264C194.433 652.132 192.758 650.457 190.626 650.457C188.494 650.457 186.819 652.132 186.819 654.264V655.787C185.525 655.787 184.535 656.777 184.535 658.071V663.401C184.535 664.695 185.525 665.685 186.819 665.685H194.433C195.728 665.685 196.718 664.695 196.718 663.401V658.071C196.718 656.777 195.728 655.787 194.433 655.787ZM188.342 654.264C188.342 652.97 189.332 651.98 190.626 651.98C191.921 651.98 192.911 652.97 192.911 654.264V655.787H188.342V654.264Z" fill="black" fill-opacity="0.3"/>
<rect x="252.895" y="628.106" width="1383.58" height="22.8421" rx="11.4211" fill="#B9BBC5"/>
<g clip-path="url(#clip3_84_96)">
<rect x="252.895" y="667.265" width="1137.21" height="22.8421" rx="11.4211" fill="#D0D2DD"/>
</g>
<rect x="109.316" y="781.474" width="1815.37" height="166.421" rx="26.1053" fill="#F5F5F5"/>
<circle cx="190.896" cy="864.681" r="29.3684" fill="#D9D9D9"/>
<path d="M194.433 861.363V859.84C194.433 857.708 192.758 856.033 190.626 856.033C188.494 856.033 186.819 857.708 186.819 859.84V861.363C185.525 861.363 184.535 862.353 184.535 863.647V868.977C184.535 870.271 185.525 871.261 186.819 871.261H194.433C195.728 871.261 196.718 870.271 196.718 868.977V863.647C196.718 862.353 195.728 861.363 194.433 861.363ZM188.342 859.84C188.342 858.546 189.332 857.556 190.626 857.556C191.921 857.556 192.911 858.546 192.911 859.84V861.363H188.342V859.84Z" fill="black" fill-opacity="0.3"/>
<rect x="252.895" y="833.685" width="1383.58" height="22.8421" rx="11.4211" fill="#B9BBC5"/>
<g clip-path="url(#clip4_84_96)">
<rect x="252.895" y="872.843" width="1137.21" height="22.8421" rx="11.4211" fill="#D0D2DD"/>
</g>
</g>
<defs>
<clipPath id="clip0_84_96">
<rect width="2034.22" height="1249.59" rx="73.4211" fill="white"/>
</clipPath>
<clipPath id="clip1_84_96">
<rect width="1815.37" height="44" fill="white" transform="translate(109.316 287.158)"/>
</clipPath>
<clipPath id="clip2_84_96">
<rect width="1619.58" height="22.8421" fill="white" transform="translate(252.895 461.686)"/>
</clipPath>
<clipPath id="clip3_84_96">
<rect width="1619.58" height="22.8421" fill="white" transform="translate(252.895 667.265)"/>
</clipPath>
<clipPath id="clip4_84_96">
<rect width="1619.58" height="22.8421" fill="white" transform="translate(252.895 872.843)"/>
</clipPath>
</defs>
</svg>
