<svg width="2035" height="1250" viewBox="0 0 2035 1250" fill="none" xmlns="http://www.w3.org/2000/svg">
<g clip-path="url(#clip0_84_201)">
<rect width="2034.22" height="154.988" fill="#F4F4F4"/>
<path d="M179.126 62.3038C179.126 63.1175 178.84 63.8106 178.267 64.3832C177.695 64.9558 177.002 65.2421 176.188 65.2421C175.374 65.2421 174.681 64.9558 174.109 64.3832C173.536 63.8106 173.25 63.1175 173.25 62.3038C173.25 61.4901 173.536 60.797 174.109 60.2244C174.681 59.6518 175.374 59.3655 176.188 59.3655C177.002 59.3655 177.695 59.6518 178.267 60.2244C178.84 60.797 179.126 61.4901 179.126 62.3038ZM171.622 102.31C170.718 102.31 169.904 102.159 169.181 101.858L170.266 98.2416C170.748 98.4224 171.155 98.5128 171.487 98.5128C173.174 98.5128 174.048 97.4731 174.109 95.3937V69.9434H178.267V94.7608C178.267 99.7936 176.052 102.31 171.622 102.31ZM184.679 85.313C184.679 86.3979 185.131 87.302 186.036 88.0253C186.97 88.7486 188.055 89.1102 189.29 89.1102C191.038 89.1102 192.59 88.4623 193.946 87.1664C195.333 85.8706 196.026 84.3487 196.026 82.6007C194.73 81.5761 192.922 81.0638 190.601 81.0638C188.914 81.0638 187.497 81.4706 186.352 82.2843C185.237 83.098 184.679 84.1076 184.679 85.313ZM190.059 69.2201C193.133 69.2201 195.559 70.0489 197.337 71.7064C199.115 73.3338 200.004 75.5789 200.004 78.4419V92.0938H196.026V89.0198H195.845C194.127 91.5513 191.837 92.817 188.974 92.817C186.533 92.817 184.484 92.0938 182.826 90.6472C181.199 89.2006 180.385 87.3924 180.385 85.2226C180.385 82.9322 181.244 81.109 182.962 79.7528C184.71 78.3967 187.03 77.7186 189.923 77.7186C192.394 77.7186 194.429 78.1707 196.026 79.0748V78.1255C196.026 76.6789 195.453 75.4584 194.308 74.4639C193.163 73.4392 191.822 72.9269 190.285 72.9269C187.964 72.9269 186.126 73.9063 184.77 75.8652L181.108 73.5598C183.127 70.6667 186.111 69.2201 190.059 69.2201ZM207.045 92.0938H202.886V69.9434H206.864V73.0173H207.045C207.678 71.9324 208.642 71.0283 209.938 70.305C211.264 69.5818 212.575 69.2201 213.871 69.2201C215.498 69.2201 216.93 69.5968 218.166 70.3502C219.401 71.1036 220.305 72.1434 220.878 73.4694C222.716 70.6365 225.263 69.2201 228.517 69.2201C231.079 69.2201 233.053 70.0037 234.439 71.5708C235.826 73.1379 236.519 75.368 236.519 78.2611V92.0938H232.36V78.8939C232.36 76.8145 231.983 75.3228 231.23 74.4187C230.476 73.4844 229.211 73.0173 227.433 73.0173C225.835 73.0173 224.494 73.6954 223.409 75.0515C222.324 76.4077 221.782 78.0049 221.782 79.8432V92.0938H217.623V78.8939C217.623 76.8145 217.246 75.3228 216.493 74.4187C215.74 73.4844 214.474 73.0173 212.696 73.0173C211.099 73.0173 209.757 73.6954 208.673 75.0515C207.588 76.4077 207.045 78.0049 207.045 79.8432V92.0938Z" fill="black"/>
<rect x="103.324" y="67.1992" width="58.1205" height="32.2891" rx="16.1446" transform="rotate(-11.0157 103.324 67.1992)" fill="#E4ECFF"/>
<path d="M115.157 70.4196L119.133 90.8434L116.509 91.3542L112.533 70.9305L115.157 70.4196ZM128.556 89.4828C126.502 89.8826 124.672 89.5085 123.067 88.3604C121.462 87.2123 120.451 85.5638 120.032 83.4149C119.618 81.2851 119.92 79.3907 120.939 77.7317C121.955 76.0538 123.47 75.0186 125.486 74.6262C127.559 74.2227 129.335 74.5776 130.815 75.6908C132.31 76.7814 133.293 78.5342 133.763 80.9493L133.79 81.2401L122.808 83.3779C123.112 84.7397 123.784 85.7538 124.821 86.4202C125.859 87.0867 126.986 87.3014 128.203 87.0645C129.877 86.7388 131.026 85.6466 131.651 83.7881L134.212 84.4737C133.814 85.7749 133.119 86.8675 132.127 87.7515C131.153 88.6318 129.963 89.2089 128.556 89.4828ZM122.586 81.1711L130.601 79.6108C130.336 78.6558 129.781 77.9348 128.937 77.448C128.107 76.9384 127.093 76.8002 125.895 77.0334C124.906 77.2259 124.11 77.6967 123.506 78.4459C122.921 79.1914 122.614 80.0998 122.586 81.1711ZM142.645 86.5033C141.504 86.7254 140.484 86.5587 139.587 86.0032C138.708 85.4439 138.137 84.5386 137.874 83.2872L136.352 75.4714L133.899 75.949L133.433 73.5529L135.886 73.0754L135.053 68.7966L137.677 68.2858L138.51 72.5645L141.933 71.8982L142.4 74.2943L138.977 74.9606L140.332 81.9206C140.513 82.8524 140.818 83.4543 141.246 83.7263C141.67 83.9792 142.11 84.0613 142.567 83.9725C142.776 83.9317 142.972 83.8738 143.155 83.7988C143.353 83.701 143.53 83.5974 143.686 83.4881L144.969 85.6661C144.332 86.0465 143.558 86.3256 142.645 86.5033ZM157.371 79.3735C157.608 80.5905 157.275 81.7211 156.373 82.7651C155.471 83.8092 154.212 84.4885 152.595 84.8032C151.188 85.0771 149.882 84.9564 148.676 84.4411C147.467 83.9067 146.517 83.085 145.828 81.9758L147.972 80.5221C148.478 81.2922 149.1 81.852 149.839 82.2015C150.593 82.5284 151.36 82.6159 152.14 82.4641C152.977 82.3012 153.636 81.9855 154.117 81.5168C154.617 81.0444 154.819 80.561 154.723 80.0666C154.549 79.1728 153.736 78.65 152.286 78.4982L149.773 78.3656C146.92 78.2104 145.305 77.1629 144.928 75.2232C144.68 73.9491 144.995 72.8318 145.874 71.8712C146.768 70.8879 148.023 70.239 149.64 69.9243C150.876 69.6837 152.046 69.7619 153.149 70.1589C154.272 70.5522 155.129 71.2044 155.721 72.1156L153.571 73.5407C153.19 73.003 152.664 72.6318 151.992 72.427C151.336 72.1994 150.637 72.1578 149.895 72.3022C149.211 72.4355 148.626 72.7269 148.141 73.1766C147.675 73.6225 147.491 74.0927 147.587 74.5872C147.742 75.3859 148.605 75.8101 150.173 75.86L152.39 75.991C155.3 76.1352 156.96 77.2627 157.371 79.3735Z" fill="black"/>
<rect x="1853.4" y="38.7461" width="77.4939" height="77.4939" rx="38.747" fill="white"/>
<path d="M1888.26 64.4785C1888.4 63.6035 1889.16 62.9609 1890.05 62.9609H1894.24C1895.13 62.9609 1895.88 63.6035 1896.03 64.4785L1896.37 66.5466C1896.47 67.1505 1896.88 67.6542 1897.41 67.9512C1897.53 68.0158 1897.65 68.0852 1897.77 68.1563C1898.29 68.4727 1898.93 68.5712 1899.51 68.3565L1901.47 67.6203C1901.87 67.4688 1902.32 67.4652 1902.72 67.6101C1903.13 67.755 1903.47 68.0389 1903.68 68.4113L1905.77 72.039C1905.99 72.4115 1906.06 72.8481 1905.99 73.2711C1905.91 73.6942 1905.69 74.0762 1905.35 74.3493L1903.74 75.6845C1903.26 76.0736 1903.03 76.6741 1903.04 77.286C1903.04 77.4232 1903.04 77.5605 1903.04 77.6977C1903.03 78.308 1903.26 78.9085 1903.74 79.2976L1905.36 80.6328C1906.04 81.1978 1906.22 82.1746 1905.78 82.9415L1903.68 86.5691C1903.47 86.9415 1903.13 87.2255 1902.72 87.3707C1902.32 87.5158 1901.87 87.5127 1901.47 87.3618L1899.51 86.6257C1898.93 86.4109 1898.29 86.5094 1897.77 86.8258C1897.65 86.8971 1897.53 86.9659 1897.41 87.0325C1896.88 87.3279 1896.47 87.8317 1896.37 88.4355L1896.03 90.5036C1895.88 91.3802 1895.13 92.0212 1894.24 92.0212H1890.05C1889.16 92.0212 1888.4 91.3786 1888.26 90.5036L1887.91 88.4355C1887.81 87.8317 1887.41 87.3279 1886.87 87.0309C1886.75 86.9649 1886.64 86.8965 1886.52 86.8258C1885.99 86.5094 1885.36 86.4109 1884.78 86.6257L1882.82 87.3618C1882.41 87.5128 1881.97 87.5162 1881.57 87.3714C1881.16 87.2265 1880.82 86.9428 1880.61 86.5708L1878.51 82.9431C1878.3 82.5706 1878.22 82.134 1878.3 81.711C1878.38 81.2879 1878.6 80.9059 1878.93 80.6328L1880.55 79.2976C1881.02 78.9102 1881.26 78.308 1881.25 77.6977C1881.24 77.5605 1881.24 77.4232 1881.25 77.286C1881.26 76.6725 1881.02 76.0736 1880.55 75.6845L1878.93 74.3493C1878.6 74.0763 1878.38 73.6946 1878.3 73.2719C1878.22 72.8492 1878.3 72.4129 1878.51 72.0406L1880.61 68.413C1880.82 68.0402 1881.16 67.756 1881.57 67.6108C1881.97 67.4656 1882.42 67.469 1882.82 67.6203L1884.78 68.3565C1885.36 68.5712 1885.99 68.4727 1886.52 68.1563C1886.63 68.0852 1886.75 68.0174 1886.87 67.9496C1887.41 67.6542 1887.81 67.1505 1887.91 66.5466L1888.26 64.4785Z" stroke="black" stroke-width="2.42169" stroke-linecap="round" stroke-linejoin="round"/>
<path d="M1896.99 77.4918C1896.99 78.7764 1896.48 80.0083 1895.57 80.9166C1894.66 81.8249 1893.43 82.3352 1892.14 82.3352C1890.86 82.3352 1889.63 81.8249 1888.72 80.9166C1887.81 80.0083 1887.3 78.7764 1887.3 77.4918C1887.3 76.2073 1887.81 74.9753 1888.72 74.067C1889.63 73.1587 1890.86 72.6484 1892.14 72.6484C1893.43 72.6484 1894.66 73.1587 1895.57 74.067C1896.48 74.9753 1896.99 76.2073 1896.99 77.4918Z" stroke="black" stroke-width="2.42169" stroke-linecap="round" stroke-linejoin="round"/>
<path d="M0 154.988H2034.22V1204.39C2034.22 1229.35 2013.98 1249.59 1989.01 1249.59H45.2049C20.239 1249.59 0 1229.35 0 1204.39V154.988Z" fill="#F4F4F4"/>
<g clip-path="url(#clip1_84_201)">
<path d="M150.291 292.482V291.869C151.273 291.624 151.948 291.194 152.316 290.581C152.684 289.926 152.868 288.863 152.868 287.39V252.667H152.132C149.964 252.871 148.205 253.894 146.856 255.734C145.506 257.575 144.442 260.335 143.665 264.016H143.113L143.788 251.378H168.757L169.371 264.016H168.819C168.082 260.335 167.019 257.575 165.628 255.734C164.279 253.894 162.541 252.871 160.414 252.667H159.616V287.39C159.616 288.863 159.8 289.926 160.168 290.581C160.536 291.194 161.211 291.624 162.193 291.869V292.482H150.291ZM187.155 292.482V291.93C187.728 291.767 188.137 291.378 188.382 290.765C188.669 290.11 188.812 289.17 188.812 287.943V270.458C188.812 266.204 187.339 264.078 184.395 264.078C183.536 264.078 182.718 264.303 181.941 264.753C181.205 265.161 180.632 265.693 180.223 266.348V288.495C180.223 290.458 180.796 291.603 181.941 291.93V292.482H172.186V291.93C172.759 291.767 173.168 291.419 173.413 290.887C173.699 290.315 173.843 289.517 173.843 288.495V255.795C173.843 254.2 173.72 253.055 173.474 252.36C173.27 251.624 172.841 251.072 172.186 250.703V250.151L180.223 249.845V265.366C180.877 263.853 181.859 262.646 183.168 261.746C184.476 260.847 185.908 260.397 187.462 260.397C189.957 260.397 191.859 261.215 193.168 262.851C194.517 264.446 195.192 266.777 195.192 269.844V287.943C195.192 289.21 195.315 290.151 195.56 290.765C195.847 291.378 196.276 291.767 196.849 291.93V292.482H187.155ZM210.958 293.096C208.709 293.096 206.745 292.442 205.068 291.133C203.432 289.783 202.144 287.881 201.203 285.427C200.304 282.973 199.854 280.069 199.854 276.716C199.854 273.525 200.304 270.703 201.203 268.249C202.103 265.795 203.351 263.873 204.946 262.483C206.541 261.092 208.381 260.397 210.467 260.397C212.308 260.397 213.882 260.867 215.191 261.808C216.541 262.708 217.584 263.996 218.32 265.673C219.097 267.35 219.486 269.333 219.486 271.624V272.851H204.823C204.905 275.714 205.375 278.249 206.234 280.458C207.093 282.667 208.218 284.405 209.608 285.673C211.04 286.9 212.655 287.513 214.455 287.513C216.254 287.513 217.768 286.695 218.995 285.059L219.424 285.243C218.729 287.697 217.686 289.619 216.295 291.01C214.905 292.401 213.126 293.096 210.958 293.096ZM209.854 261.746C208.381 261.746 207.154 262.646 206.173 264.446C205.232 266.245 204.762 268.658 204.762 271.685L208.749 271.501C210.549 271.46 211.817 271.092 212.553 270.397C213.33 269.701 213.719 268.597 213.719 267.084C213.719 265.448 213.371 264.159 212.676 263.219C211.98 262.237 211.04 261.746 209.854 261.746ZM235.53 251.378H246.327C250.908 251.378 254.405 252.217 256.818 253.894C259.231 255.53 260.438 257.922 260.438 261.072C260.438 266.307 257.186 269.476 250.683 270.581V270.765C252.36 271.133 253.71 271.603 254.732 272.176C255.796 272.707 256.614 273.423 257.186 274.323C257.8 275.223 258.311 276.429 258.72 277.943L261.235 287.022C261.562 288.29 261.849 289.231 262.094 289.844C262.38 290.458 262.646 290.908 262.892 291.194C263.178 291.439 263.546 291.664 263.996 291.869V292.482L260.867 292.421C259.558 292.38 258.515 292.196 257.738 291.869C256.961 291.542 256.307 290.99 255.775 290.212C255.284 289.395 254.794 288.208 254.303 286.654L251.174 277.268C250.683 275.795 250.192 274.671 249.702 273.894C249.252 273.076 248.72 272.523 248.106 272.237C247.493 271.91 246.716 271.746 245.775 271.746H244.119V287.636C244.119 288.986 244.262 289.988 244.548 290.642C244.835 291.255 245.305 291.664 245.959 291.869V292.482H235.53V291.869C236.184 291.664 236.655 291.255 236.941 290.642C237.227 289.988 237.37 288.986 237.37 287.636V256.225C237.37 254.916 237.227 253.935 236.941 253.28C236.655 252.626 236.184 252.196 235.53 251.992V251.378ZM244.119 252.728V270.397H246.327C248.659 270.397 250.438 269.599 251.665 268.004C252.933 266.409 253.567 264.098 253.567 261.072C253.567 255.509 251.154 252.728 246.327 252.728H244.119ZM276.822 293.096C274.45 293.096 272.364 292.421 270.565 291.071C268.765 289.681 267.354 287.759 266.332 285.305C265.309 282.81 264.798 279.947 264.798 276.716C264.798 273.485 265.309 270.642 266.332 268.188C267.354 265.734 268.765 263.832 270.565 262.483C272.364 261.092 274.45 260.397 276.822 260.397C279.235 260.397 281.342 261.092 283.141 262.483C284.941 263.832 286.331 265.734 287.313 268.188C288.336 270.642 288.847 273.485 288.847 276.716C288.847 279.947 288.336 282.81 287.313 285.305C286.331 287.759 284.92 289.681 283.08 291.071C281.28 292.421 279.194 293.096 276.822 293.096ZM276.822 261.685C275.227 261.685 273.98 262.973 273.08 265.55C272.221 268.086 271.792 271.808 271.792 276.716C271.792 281.624 272.221 285.366 273.08 287.943C273.98 290.519 275.227 291.808 276.822 291.808C278.458 291.808 279.706 290.519 280.565 287.943C281.464 285.366 281.914 281.624 281.914 276.716C281.914 271.808 281.464 268.086 280.565 265.55C279.706 262.973 278.458 261.685 276.822 261.685ZM303.363 293.096C300.991 293.096 298.905 292.421 297.105 291.071C295.306 289.681 293.895 287.759 292.872 285.305C291.85 282.81 291.339 279.947 291.339 276.716C291.339 273.485 291.85 270.642 292.872 268.188C293.895 265.734 295.306 263.832 297.105 262.483C298.905 261.092 300.991 260.397 303.363 260.397C305.776 260.397 307.883 261.092 309.682 262.483C311.482 263.832 312.872 265.734 313.854 268.188C314.876 270.642 315.388 273.485 315.388 276.716C315.388 279.947 314.876 282.81 313.854 285.305C312.872 287.759 311.461 289.681 309.621 291.071C307.821 292.421 305.735 293.096 303.363 293.096ZM303.363 261.685C301.768 261.685 300.521 262.973 299.621 265.55C298.762 268.086 298.332 271.808 298.332 276.716C298.332 281.624 298.762 285.366 299.621 287.943C300.521 290.519 301.768 291.808 303.363 291.808C304.999 291.808 306.247 290.519 307.105 287.943C308.005 285.366 308.455 281.624 308.455 276.716C308.455 271.808 308.005 268.086 307.105 265.55C306.247 262.973 304.999 261.685 303.363 261.685ZM318.616 292.482V291.93C319.188 291.767 319.597 291.378 319.843 290.765C320.129 290.11 320.272 289.17 320.272 287.943V267.636C320.272 266.041 320.149 264.875 319.904 264.139C319.699 263.362 319.27 262.769 318.616 262.36V261.808L326.407 260.642L326.591 265.366C327.205 263.812 328.145 262.605 329.413 261.746C330.722 260.847 332.133 260.397 333.646 260.397C335.364 260.397 336.795 260.867 337.941 261.808C339.086 262.708 339.843 263.996 340.211 265.673C340.947 263.996 341.949 262.708 343.217 261.808C344.526 260.867 345.977 260.397 347.573 260.397C349.699 260.397 351.376 261.112 352.603 262.544C353.83 263.935 354.444 265.918 354.444 268.495V287.943C354.444 289.21 354.566 290.151 354.812 290.765C355.098 291.378 355.527 291.767 356.1 291.93V292.482H346.407V291.93C347.02 291.767 347.45 291.378 347.695 290.765C347.982 290.11 348.125 289.17 348.125 287.943V269.17C348.125 267.493 347.797 266.225 347.143 265.366C346.489 264.507 345.589 264.078 344.444 264.078C343.667 264.078 342.91 264.323 342.174 264.814C341.438 265.264 340.845 265.857 340.395 266.593C340.517 267.206 340.579 267.84 340.579 268.495V287.943C340.579 289.21 340.701 290.151 340.947 290.765C341.192 291.378 341.601 291.767 342.174 291.93V292.482H332.542V291.93C333.115 291.767 333.524 291.378 333.769 290.765C334.055 290.11 334.198 289.17 334.198 287.943V269.17C334.198 267.493 333.851 266.225 333.155 265.366C332.501 264.507 331.601 264.078 330.456 264.078C329.72 264.078 329.004 264.282 328.309 264.691C327.654 265.059 327.082 265.611 326.591 266.348L326.652 266.838V287.943C326.652 289.17 326.775 290.11 327.02 290.765C327.266 291.378 327.695 291.767 328.309 291.93V292.482H318.616ZM381.196 256.225V270.029H393.589V256.225C393.589 254.875 393.446 253.894 393.159 253.28C392.914 252.626 392.464 252.196 391.81 251.992V251.378H402.239V251.992C401.544 252.196 401.053 252.626 400.767 253.28C400.521 253.894 400.399 254.875 400.399 256.225V287.636C400.399 288.986 400.521 289.988 400.767 290.642C401.053 291.255 401.544 291.664 402.239 291.869V292.482H391.81V291.869C392.464 291.664 392.914 291.255 393.159 290.642C393.446 289.988 393.589 288.986 393.589 287.636V271.378H381.196V287.636C381.196 288.986 381.339 289.988 381.626 290.642C381.912 291.255 382.382 291.664 383.037 291.869V292.482H372.607V291.869C373.303 291.664 373.773 291.255 374.018 290.642C374.305 289.988 374.448 288.986 374.448 287.636V256.225C374.448 254.875 374.305 253.894 374.018 253.28C373.773 252.626 373.303 252.196 372.607 251.992V251.378H383.037V251.992C382.382 252.196 381.912 252.626 381.626 253.28C381.339 253.894 381.196 254.875 381.196 256.225ZM414.477 293.096C412.841 293.096 411.389 292.748 410.121 292.053C408.853 291.317 407.872 290.315 407.176 289.047C406.481 287.738 406.133 286.245 406.133 284.568C406.133 281.542 407.135 278.638 409.14 275.857C411.144 273.035 414.293 270.172 418.587 267.268C418.219 265.346 417.688 263.955 416.992 263.096C416.338 262.237 415.438 261.808 414.293 261.808C413.189 261.808 412.35 262.176 411.778 262.912C411.246 263.607 410.919 264.752 410.796 266.348C410.673 267.779 410.019 268.495 408.833 268.495C408.26 268.495 407.79 268.311 407.422 267.943C407.054 267.575 406.87 267.084 406.87 266.47C406.87 265.366 407.258 264.364 408.035 263.464C408.812 262.523 409.855 261.787 411.164 261.256C412.473 260.683 413.925 260.397 415.52 260.397C421.491 260.397 424.845 263.403 425.581 269.415L427.79 287.574C428.117 290.151 428.771 291.603 429.753 291.93V292.482H427.299C425.663 292.482 424.416 292.114 423.557 291.378C422.739 290.601 422.146 289.292 421.777 287.452C421.041 289.251 420.039 290.642 418.771 291.624C417.544 292.605 416.113 293.096 414.477 293.096ZM412.575 282.482C412.575 284.691 412.984 286.409 413.802 287.636C414.62 288.863 415.745 289.476 417.176 289.476C418.076 289.476 418.915 289.21 419.692 288.679C420.51 288.147 421.144 287.472 421.593 286.654L421.532 286.225L418.71 268.188C416.624 270.397 415.07 272.707 414.047 275.121C413.066 277.493 412.575 279.947 412.575 282.482ZM432.102 281.071C434.475 288.229 437.501 291.808 441.182 291.808C442.368 291.808 443.309 291.419 444.004 290.642C444.699 289.865 445.047 288.842 445.047 287.574C445.047 286.102 444.72 284.855 444.066 283.832C443.452 282.769 442.634 281.828 441.612 281.01C440.63 280.192 439.567 279.415 438.421 278.679C437.276 277.902 436.192 277.063 435.17 276.163C434.188 275.223 433.37 274.159 432.716 272.973C432.102 271.746 431.796 270.294 431.796 268.618C431.796 267.022 432.143 265.611 432.839 264.384C433.534 263.117 434.495 262.135 435.722 261.44C436.99 260.744 438.421 260.397 440.016 260.397C441.325 260.397 442.43 260.581 443.329 260.949C444.27 261.276 444.986 261.44 445.477 261.44C446.172 261.44 446.663 261.194 446.949 260.703H447.317L448.053 270.703H447.501C445.415 264.691 442.879 261.685 439.894 261.685C438.83 261.685 437.951 262.033 437.256 262.728C436.601 263.382 436.274 264.282 436.274 265.427C436.274 266.573 436.581 267.575 437.194 268.433C437.849 269.292 438.687 270.09 439.71 270.826C440.732 271.521 441.816 272.258 442.961 273.035C444.106 273.771 445.19 274.63 446.213 275.611C447.235 276.552 448.053 277.697 448.667 279.047C449.321 280.356 449.648 281.951 449.648 283.832C449.648 285.673 449.28 287.288 448.544 288.679C447.849 290.069 446.867 291.153 445.599 291.93C444.331 292.707 442.818 293.096 441.059 293.096C439.71 293.096 438.503 292.912 437.44 292.544C436.376 292.217 435.436 292.053 434.618 292.053C433.759 292.053 433.145 292.298 432.777 292.789H432.409L431.55 281.071H432.102ZM465.89 292.482V291.869C466.585 291.664 467.055 291.255 467.301 290.642C467.587 289.988 467.73 289.006 467.73 287.697V256.164C467.73 254.814 467.587 253.832 467.301 253.219C467.055 252.605 466.585 252.196 465.89 251.992V251.378H476.196C480.164 251.378 483.599 252.217 486.503 253.894C489.407 255.53 491.636 257.902 493.19 261.01C494.785 264.078 495.583 267.718 495.583 271.93C495.583 276.143 494.785 279.804 493.19 282.912C491.636 285.979 489.407 288.352 486.503 290.028C483.599 291.664 480.164 292.482 476.196 292.482H465.89ZM474.478 291.133H476.196C480.041 291.133 482.965 289.497 484.969 286.225C487.014 282.953 488.037 278.188 488.037 271.93C488.037 265.673 487.014 260.908 484.969 257.636C482.965 254.364 480.041 252.728 476.196 252.728H474.478V291.133ZM509.737 293.096C507.487 293.096 505.524 292.442 503.847 291.133C502.211 289.783 500.923 287.881 499.982 285.427C499.082 282.973 498.632 280.069 498.632 276.716C498.632 273.525 499.082 270.703 499.982 268.249C500.882 265.795 502.129 263.873 503.724 262.483C505.32 261.092 507.16 260.397 509.246 260.397C511.086 260.397 512.661 260.867 513.97 261.808C515.319 262.708 516.362 263.996 517.099 265.673C517.876 267.35 518.264 269.333 518.264 271.624V272.851H503.602C503.684 275.714 504.154 278.249 505.013 280.458C505.872 282.667 506.996 284.405 508.387 285.673C509.818 286.9 511.434 287.513 513.234 287.513C515.033 287.513 516.546 286.695 517.773 285.059L518.203 285.243C517.508 287.697 516.465 289.619 515.074 291.01C513.683 292.401 511.904 293.096 509.737 293.096ZM508.632 261.746C507.16 261.746 505.933 262.646 504.951 264.446C504.011 266.245 503.54 268.658 503.54 271.685L507.528 271.501C509.328 271.46 510.596 271.092 511.332 270.397C512.109 269.701 512.497 268.597 512.497 267.084C512.497 265.448 512.15 264.159 511.454 263.219C510.759 262.237 509.818 261.746 508.632 261.746ZM531.659 293.096C529.491 293.096 527.589 292.421 525.953 291.071C524.358 289.681 523.09 287.759 522.149 285.305C521.25 282.851 520.8 279.988 520.8 276.716C520.8 273.525 521.229 270.703 522.088 268.249C522.947 265.795 524.113 263.873 525.585 262.483C527.098 261.092 528.816 260.397 530.738 260.397C531.638 260.397 532.415 260.499 533.07 260.703C533.765 260.867 534.378 261.051 534.91 261.256C535.442 261.419 535.851 261.501 536.137 261.501C536.628 261.501 537.057 261.235 537.425 260.703H537.732L538.468 271.685H537.916C535.667 265.059 533.192 261.746 530.493 261.746C529.102 261.746 527.998 262.605 527.18 264.323C526.362 266 525.953 268.331 525.953 271.317C525.953 274.425 526.342 277.206 527.119 279.66C527.896 282.073 528.959 283.996 530.309 285.427C531.699 286.818 533.254 287.513 534.971 287.513C536.485 287.513 537.753 286.736 538.775 285.182L539.143 285.366C538.448 288.024 537.487 289.988 536.26 291.255C535.074 292.482 533.54 293.096 531.659 293.096ZM546.986 249.783C548.05 249.783 548.929 250.151 549.624 250.888C550.32 251.583 550.667 252.442 550.667 253.464C550.667 254.528 550.32 255.427 549.624 256.164C548.929 256.859 548.05 257.207 546.986 257.207C545.923 257.207 545.023 256.859 544.287 256.164C543.592 255.427 543.244 254.528 543.244 253.464C543.244 252.442 543.592 251.583 544.287 250.888C545.023 250.151 545.923 249.783 546.986 249.783ZM542.385 261.869L550.483 261.01V287.943C550.483 289.21 550.606 290.151 550.851 290.765C551.097 291.378 551.506 291.767 552.078 291.93V292.482H542.385V291.93C542.958 291.767 543.367 291.378 543.612 290.765C543.898 290.11 544.042 289.17 544.042 287.943V267.697C544.042 266.061 543.919 264.875 543.673 264.139C543.469 263.403 543.039 262.83 542.385 262.421V261.869ZM565.126 293.096C563.163 293.096 561.425 292.421 559.911 291.071C558.439 289.681 557.294 287.759 556.476 285.305C555.658 282.851 555.249 279.988 555.249 276.716C555.249 273.566 555.719 270.765 556.66 268.311C557.601 265.816 558.889 263.873 560.525 262.483C562.202 261.092 564.083 260.397 566.169 260.397C568.091 260.397 569.83 260.887 571.384 261.869V255.795C571.384 254.2 571.261 253.055 571.016 252.36C570.77 251.665 570.341 251.112 569.727 250.703V250.151L577.58 249.845V287.329C577.58 288.761 577.703 289.824 577.948 290.519C578.193 291.174 578.643 291.644 579.298 291.93V292.482H571.629L571.384 288.679C570.811 290.028 569.952 291.112 568.807 291.93C567.703 292.707 566.476 293.096 565.126 293.096ZM561.2 271.624C561.2 273.873 561.384 276.082 561.752 278.249C562.161 280.417 562.693 282.38 563.347 284.139C564.042 285.857 564.819 287.227 565.678 288.249C566.537 289.272 567.457 289.783 568.439 289.783C569.666 289.783 570.648 289.088 571.384 287.697V279.17C571.384 273.321 570.913 268.965 569.973 266.102C569.073 263.198 567.682 261.746 565.801 261.746C564.41 261.746 563.286 262.626 562.427 264.384C561.609 266.102 561.2 268.515 561.2 271.624ZM593.553 293.096C591.303 293.096 589.34 292.442 587.663 291.133C586.027 289.783 584.739 287.881 583.798 285.427C582.899 282.973 582.449 280.069 582.449 276.716C582.449 273.525 582.899 270.703 583.798 268.249C584.698 265.795 585.946 263.873 587.541 262.483C589.136 261.092 590.976 260.397 593.062 260.397C594.903 260.397 596.477 260.867 597.786 261.808C599.136 262.708 600.179 263.996 600.915 265.673C601.692 267.35 602.08 269.333 602.08 271.624V272.851H587.418C587.5 275.714 587.97 278.249 588.829 280.458C589.688 282.667 590.813 284.405 592.203 285.673C593.635 286.9 595.25 287.513 597.05 287.513C598.849 287.513 600.363 286.695 601.59 285.059L602.019 285.243C601.324 287.697 600.281 289.619 598.89 291.01C597.5 292.401 595.721 293.096 593.553 293.096ZM592.449 261.746C590.976 261.746 589.749 262.646 588.768 264.446C587.827 266.245 587.357 268.658 587.357 271.685L591.344 271.501C593.144 271.46 594.412 271.092 595.148 270.397C595.925 269.701 596.314 268.597 596.314 267.084C596.314 265.448 595.966 264.159 595.271 263.219C594.575 262.237 593.635 261.746 592.449 261.746ZM614.493 293.096C612.53 293.096 610.792 292.421 609.278 291.071C607.806 289.681 606.661 287.759 605.843 285.305C605.025 282.851 604.616 279.988 604.616 276.716C604.616 273.566 605.086 270.765 606.027 268.311C606.968 265.816 608.256 263.873 609.892 262.483C611.569 261.092 613.45 260.397 615.536 260.397C617.458 260.397 619.197 260.887 620.751 261.869V255.795C620.751 254.2 620.628 253.055 620.383 252.36C620.137 251.665 619.708 251.112 619.094 250.703V250.151L626.947 249.845V287.329C626.947 288.761 627.07 289.824 627.315 290.519C627.561 291.174 628.01 291.644 628.665 291.93V292.482H620.996L620.751 288.679C620.178 290.028 619.319 291.112 618.174 291.93C617.07 292.707 615.843 293.096 614.493 293.096ZM610.567 271.624C610.567 273.873 610.751 276.082 611.119 278.249C611.528 280.417 612.06 282.38 612.714 284.139C613.409 285.857 614.186 287.227 615.045 288.249C615.904 289.272 616.824 289.783 617.806 289.783C619.033 289.783 620.015 289.088 620.751 287.697V279.17C620.751 273.321 620.28 268.965 619.34 266.102C618.44 263.198 617.049 261.746 615.168 261.746C613.777 261.746 612.653 262.626 611.794 264.384C610.976 266.102 610.567 268.515 610.567 271.624Z" fill="#D45858" fill-opacity="0.46"/>
</g>
<rect x="77.4922" y="350.229" width="1879.23" height="319.663" rx="25.8313" fill="#F5F5F5"/>
<rect x="129.156" y="401.891" width="1775.9" height="22.6024" rx="11.3012" fill="#7F8695"/>
<rect x="129.156" y="440.638" width="1775.9" height="22.6024" rx="11.3012" fill="#9A9FAD"/>
<rect x="129.156" y="479.385" width="1775.9" height="22.6024" rx="11.3012" fill="#A8AAB0"/>
<rect x="129.156" y="518.132" width="1775.9" height="22.6024" rx="11.3012" fill="#C0C2C8"/>
<rect x="129.156" y="556.879" width="1083.3" height="22.6024" rx="11.3012" fill="#B9BBC5"/>
<g clip-path="url(#clip2_84_201)">
<rect x="129.156" y="595.626" width="715.205" height="22.6024" rx="11.3012" fill="#D9D9D9"/>
</g>
<circle cx="919.042" cy="1058.53" r="13.1475" fill="#F8D003"/>
<circle cx="383.288" cy="1032.23" r="13.1475" fill="#48BC6B"/>
<circle cx="435.878" cy="1163.71" r="13.1475" fill="#F8D003"/>
<circle cx="90.7569" cy="1005.94" r="13.1475" fill="#62A1F1"/>
<circle cx="547.628" cy="1203.15" r="13.1475" fill="#62A1F1"/>
<circle cx="537.765" cy="1032.23" r="13.1475" fill="#F8D003"/>
<circle cx="268.245" cy="930.342" r="13.1475" fill="#F8D003"/>
<circle cx="268.245" cy="1088.11" r="13.1475" fill="#F56157"/>
<circle cx="988.065" cy="844.883" r="13.1475" fill="#48BC6B"/>
<rect x="754.703" y="1101.26" width="29.5818" height="19.7212" fill="#48BC6B"/>
<rect x="87.4648" y="1130.84" width="29.5818" height="19.7212" fill="#48BC6B"/>
<rect x="88.6211" y="815.301" width="29.5818" height="19.7212" transform="rotate(63.0798 88.6211 815.301)" fill="#F56157"/>
<rect x="723.234" y="906.896" width="29.5818" height="19.7212" transform="rotate(-53.8816 723.234 906.896)" fill="#F56157"/>
<path d="M886.033 1141.75L887.906 1161.58L869.79 1153.29L886.033 1141.75Z" fill="#62A1F1"/>
<path d="M664.362 1107.43L666.234 1127.26L648.118 1118.97L664.362 1107.43Z" fill="#F56157"/>
<path d="M677.461 992.792L687.424 1010.05H667.498L677.461 992.792Z" fill="#F56157"/>
<path d="M455.789 958.472L465.752 975.728H445.826L455.789 958.472Z" fill="#62A1F1"/>
<path d="M401.996 1191.66L419.439 1201.29L402.376 1211.58L401.996 1191.66Z" fill="#F56157"/>
<path d="M174.148 936.753L149.794 945.578L154.328 920.075L174.148 936.753Z" fill="#48BC6B"/>
<path d="M131.854 932.549L113.12 939.338L116.608 919.72L131.854 932.549Z" fill="#62A1F1"/>
<circle cx="1942.39" cy="962.892" r="13.9446" transform="rotate(-11.2341 1942.39 962.892)" fill="#62A1F1"/>
<circle cx="1379.57" cy="1046.25" r="13.9446" transform="rotate(-11.2341 1379.57 1046.25)" fill="#48BC6B"/>
<circle cx="1461.47" cy="1172.14" r="13.9446" transform="rotate(-11.2341 1461.47 1172.14)" fill="#F8D003"/>
<circle cx="1069.85" cy="1079.33" r="13.9446" transform="rotate(-11.2341 1069.85 1079.33)" fill="#62A1F1"/>
<circle cx="1585.87" cy="1190.1" r="13.9446" transform="rotate(-11.2341 1585.87 1190.1)" fill="#F56157"/>
<circle cx="1540.27" cy="1014.35" r="13.9446" transform="rotate(-11.2341 1540.27 1014.35)" fill="#F56157"/>
<circle cx="1238.88" cy="964.027" r="13.9446" transform="rotate(-11.2341 1238.88 964.027)" fill="#F56157"/>
<circle cx="1271.46" cy="1128.13" r="13.9446" transform="rotate(-11.2341 1271.46 1128.13)" fill="#F56157"/>
<circle cx="1970.03" cy="726.379" r="13.9446" transform="rotate(-11.2341 1970.03 726.379)" fill="#48BC6B"/>
<rect x="1780.3" y="1041.3" width="31.3753" height="20.9168" transform="rotate(-11.2341 1780.3 1041.3)" fill="#F56157"/>
<rect x="1092.22" y="1209.96" width="31.3753" height="20.9168" transform="rotate(-11.2341 1092.22 1209.96)" fill="#48BC6B"/>
<rect x="1028.26" y="881.444" width="31.3753" height="20.9169" transform="rotate(51.8456 1028.26 881.444)" fill="#F56157"/>
<rect x="1707.35" y="845.602" width="31.3753" height="20.9169" transform="rotate(-65.1158 1707.35 845.602)" fill="#62A1F1"/>
<path d="M1925.23 1056.3L1931.28 1076.55L1910.72 1071.66L1925.23 1056.3Z" fill="#F8D003"/>
<path d="M1963.43 1162.02L1971.29 1188.34L1944.56 1181.99L1963.43 1162.02Z" fill="#F56157"/>
<path d="M1677.46 944.453L1691.39 960.346L1670.66 964.463L1677.46 944.453Z" fill="#F56157"/>
<path d="M1641.4 1016.6L1659.51 1037.26L1632.56 1042.61L1641.4 1016.6Z" fill="#62A1F1"/>
<path d="M1432.01 1208.23L1452.15 1214.64L1436.52 1228.88L1432.01 1208.23Z" fill="#48BC6B"/>
<path d="M1194.29 1218.34L1214.43 1224.76L1198.8 1238.99L1194.29 1218.34Z" fill="#F8D003"/>
<path d="M1335.13 984.403L1317.05 995.336L1316.62 974.207L1335.13 984.403Z" fill="#F8D003"/>
<path d="M1097.47 994.488L1079.39 1005.42L1078.96 984.292L1097.47 994.488Z" fill="#F8D003"/>
</g>
<defs>
<clipPath id="clip0_84_201">
<rect width="2034.22" height="1249.59" rx="72.6506" fill="white"/>
</clipPath>
<clipPath id="clip1_84_201">
<rect width="1879.23" height="79" fill="white" transform="translate(77.4922 232.482)"/>
</clipPath>
<clipPath id="clip2_84_201">
<rect width="1775.9" height="22.6024" fill="white" transform="translate(129.156 595.626)"/>
</clipPath>
</defs>
</svg>
