<svg width="84" height="29" viewBox="0 0 84 29" fill="none" xmlns="http://www.w3.org/2000/svg">
<style>@media (prefers-color-scheme: dark){.jam{fill:#ffffff}}</style>
<path class="jam" d="M46.9536 3.548C46.9536 4.052 46.7763 4.48133 46.4216 4.836C46.0669 5.19067 45.6376 5.368 45.1336 5.368C44.6296 5.368 44.2003 5.19067 43.8456 4.836C43.4909 4.48133 43.3136 4.052 43.3136 3.548C43.3136 3.044 43.4909 2.61467 43.8456 2.26C44.2003 1.90533 44.6296 1.728 45.1336 1.728C45.6376 1.728 46.0669 1.90533 46.4216 2.26C46.7763 2.61467 46.9536 3.044 46.9536 3.548ZM42.3056 28.328C41.7456 28.328 41.2416 28.2347 40.7936 28.048L41.4656 25.808C41.7643 25.92 42.0163 25.976 42.2216 25.976C43.2669 25.976 43.8083 25.332 43.8456 24.044V8.28H46.4216V23.652C46.4216 26.7693 45.0496 28.328 42.3056 28.328ZM50.3932 17.8C50.3932 18.472 50.6732 19.032 51.2332 19.48C51.8119 19.928 52.4839 20.152 53.2492 20.152C54.3319 20.152 55.2932 19.7507 56.1332 18.948C56.9919 18.1453 57.4212 17.2027 57.4212 16.12C56.6186 15.4853 55.4986 15.168 54.0612 15.168C53.0159 15.168 52.1386 15.42 51.4292 15.924C50.7386 16.428 50.3932 17.0533 50.3932 17.8ZM53.7252 7.832C55.6292 7.832 57.1319 8.34533 58.2332 9.372C59.3346 10.38 59.8852 11.7707 59.8852 13.544V22H57.4212V20.096H57.3092C56.2452 21.664 54.8266 22.448 53.0532 22.448C51.5412 22.448 50.2719 22 49.2452 21.104C48.2372 20.208 47.7332 19.088 47.7332 17.744C47.7332 16.3253 48.2652 15.196 49.3292 14.356C50.4119 13.516 51.8492 13.096 53.6412 13.096C55.1719 13.096 56.4319 13.376 57.4212 13.936V13.348C57.4212 12.452 57.0666 11.696 56.3572 11.08C55.6479 10.4453 54.8172 10.128 53.8652 10.128C52.4279 10.128 51.2892 10.7347 50.4492 11.948L48.1812 10.52C49.4319 8.728 51.2799 7.832 53.7252 7.832ZM64.2467 22H61.6707V8.28H64.1347V10.184H64.2467C64.6387 9.512 65.236 8.952 66.0387 8.504C66.86 8.056 67.672 7.832 68.4747 7.832C69.4827 7.832 70.3693 8.06533 71.1347 8.532C71.9 8.99867 72.46 9.64267 72.8147 10.464C73.9533 8.70933 75.5307 7.832 77.5467 7.832C79.1333 7.832 80.356 8.31733 81.2147 9.288C82.0733 10.2587 82.5027 11.64 82.5027 13.432V22H79.9267V13.824C79.9267 12.536 79.6933 11.612 79.2267 11.052C78.76 10.4733 77.976 10.184 76.8747 10.184C75.8853 10.184 75.0547 10.604 74.3827 11.444C73.7107 12.284 73.3747 13.2733 73.3747 14.412V22H70.7987V13.824C70.7987 12.536 70.5653 11.612 70.0987 11.052C69.632 10.4733 68.848 10.184 67.7467 10.184C66.7573 10.184 65.9267 10.604 65.2547 11.444C64.5827 12.284 64.2467 13.2733 64.2467 14.412V22Z" fill="black"/>
<rect y="6.87891" width="36" height="20" rx="10" transform="rotate(-11.0157 0 6.87891)" fill="#E4ECFF"/>
<path d="M7.28169 8.63175L9.7443 21.2823L8.11881 21.5987L5.6562 8.94818L7.28169 8.63175ZM15.5807 20.4396C14.3086 20.6872 13.1755 20.4554 12.1813 19.7443C11.1871 19.0332 10.5604 18.0121 10.3013 16.6811C10.0445 15.3618 10.2317 14.1884 10.863 13.1609C11.492 12.1216 12.4308 11.4804 13.6794 11.2373C14.9633 10.9874 16.0635 11.2072 16.9802 11.8967C17.9063 12.5722 18.515 13.6579 18.8062 15.1539L18.8229 15.334L12.0206 16.6581C12.2093 17.5016 12.6249 18.1298 13.2677 18.5426C13.9104 18.9554 14.6087 19.0884 15.3625 18.9417C16.399 18.7399 17.1109 18.0634 17.4981 16.9122L19.0845 17.3369C18.8379 18.1429 18.4073 18.8196 17.7926 19.3672C17.1897 19.9124 16.4524 20.2699 15.5807 20.4396ZM11.8829 15.2913L16.8477 14.3248C16.6836 13.7332 16.34 13.2867 15.8167 12.9851C15.3029 12.6695 14.675 12.5839 13.9329 12.7283C13.3204 12.8476 12.8271 13.1392 12.4528 13.6033C12.0904 14.065 11.9004 14.6277 11.8829 15.2913ZM24.3076 18.594C23.6009 18.7316 22.9695 18.6284 22.4135 18.2843C21.8693 17.9379 21.5156 17.3771 21.3525 16.602L20.4101 11.7609L18.8907 12.0566L18.6018 10.5725L20.1212 10.2767L19.6053 7.62646L21.2308 7.31004L21.7467 9.96029L23.8669 9.54757L24.1558 11.0317L22.0356 11.4444L22.8748 15.7555C22.9872 16.3327 23.1759 16.7055 23.441 16.8739C23.7038 17.0306 23.9765 17.0814 24.2592 17.0264C24.3888 17.0012 24.5101 16.9653 24.6233 16.9188C24.746 16.8583 24.8558 16.7941 24.9526 16.7264L25.747 18.0754C25.3528 18.3111 24.873 18.484 24.3076 18.594ZM33.4289 14.1778C33.5756 14.9316 33.3697 15.6319 32.8109 16.2786C32.2522 16.9253 31.4722 17.3461 30.471 17.5409C29.5994 17.7106 28.7902 17.6359 28.0434 17.3167C27.2944 16.9857 26.7063 16.4767 26.2792 15.7897L27.6076 14.8892C27.9205 15.3662 28.3058 15.713 28.7636 15.9295C29.2309 16.1319 29.7061 16.1862 30.189 16.0921C30.7073 15.9913 31.1154 15.7957 31.4134 15.5054C31.7232 15.2128 31.8483 14.9134 31.7887 14.6071C31.6809 14.0535 31.1778 13.7297 30.2793 13.6356L28.7229 13.5535C26.956 13.4574 25.9556 12.8086 25.7217 11.6071C25.5681 10.8179 25.7634 10.1258 26.3078 9.53087C26.8616 8.92182 27.6391 8.51985 28.6403 8.32495C29.4059 8.17591 30.1306 8.22435 30.8141 8.47026C31.5095 8.71388 32.0405 9.11787 32.4071 9.68222L31.0752 10.565C30.8392 10.2319 30.5133 10.002 30.0974 9.8751C29.6909 9.73416 29.258 9.70841 28.7987 9.79783C28.3746 9.88038 28.0125 10.0609 27.7121 10.3394C27.4236 10.6156 27.3091 10.9069 27.3688 11.2131C27.4651 11.7078 27.9991 11.9706 28.9709 12.0015L30.3437 12.0827C32.146 12.172 33.1744 12.8703 33.4289 14.1778Z" fill="black"/>
</svg>
